<svg width="512" height="512" viewBox="0 0 512 512" fill="none" xmlns="http://www.w3.org/2000/svg">
<path d="M350.29 80.15H360.83V90.48C360.83 92.3365 361.568 94.117 362.88 95.4297C364.193 96.7425 365.974 97.48 367.83 97.48C369.687 97.48 371.467 96.7425 372.78 95.4297C374.093 94.117 374.83 92.3365 374.83 90.48V80.15H385.16C387.017 80.15 388.797 79.4125 390.11 78.0997C391.423 76.787 392.16 75.0065 392.16 73.15C392.16 71.2935 391.423 69.513 390.11 68.2003C388.797 66.8875 387.017 66.15 385.16 66.15H374.83V55.62C374.83 53.7635 374.093 51.983 372.78 50.6702C371.467 49.3575 369.687 48.62 367.83 48.62C365.974 48.62 364.193 49.3575 362.88 50.6702C361.568 51.983 360.83 53.7635 360.83 55.62V66.15H350.29C348.434 66.15 346.653 66.8875 345.34 68.2002C344.028 69.513 343.29 71.2935 343.29 73.15C343.29 75.0065 344.028 76.787 345.34 78.0997C346.653 79.4125 348.434 80.15 350.29 80.15ZM229 232.09L256.63 253.87C259.267 255.961 262.534 257.099 265.9 257.099C269.266 257.099 272.533 255.961 275.17 253.87L302.8 232.09C306.706 229.032 309.862 225.123 312.028 220.661C314.195 216.198 315.314 211.3 315.3 206.34V201.67C315.296 195.937 313.698 190.319 310.684 185.443C307.67 180.567 303.358 176.625 298.232 174.059C293.106 171.493 287.367 170.403 281.657 170.912C275.947 171.421 270.492 173.508 265.9 176.94C261.309 173.507 255.854 171.419 250.144 170.91C244.435 170.4 238.696 171.49 233.57 174.056C228.444 176.623 224.134 180.565 221.121 185.442C218.108 190.319 216.511 195.938 216.51 201.67V206.34C216.495 211.3 217.612 216.197 219.776 220.66C221.941 225.122 225.096 229.032 229 232.09ZM230.51 201.67C230.502 198.177 231.577 194.768 233.589 191.912C235.6 189.056 238.447 186.894 241.738 185.725C245.029 184.555 248.602 184.436 251.965 185.382C255.327 186.329 258.312 188.295 260.51 191.01C261.167 191.815 261.994 192.464 262.932 192.909C263.871 193.355 264.896 193.586 265.935 193.586C266.974 193.586 268 193.355 268.938 192.909C269.876 192.464 270.704 191.815 271.36 191.01C273.558 188.295 276.543 186.329 279.906 185.382C283.268 184.436 286.841 184.555 290.132 185.725C293.423 186.894 296.271 189.056 298.282 191.912C300.293 194.768 301.368 198.177 301.36 201.67V206.34C301.367 209.183 300.726 211.989 299.485 214.547C298.244 217.105 296.437 219.346 294.2 221.1L266.57 242.88C266.396 243.012 266.184 243.084 265.965 243.084C265.747 243.084 265.534 243.012 265.36 242.88L237.62 221.1C235.383 219.346 233.576 217.105 232.335 214.547C231.094 211.989 230.453 209.183 230.46 206.34L230.51 201.67ZM387.21 392.07C391.15 387.169 393.858 381.395 395.107 375.233C396.355 369.07 396.108 362.697 394.387 356.649C392.665 350.601 389.519 345.054 385.211 340.473C380.904 335.892 375.561 332.41 369.631 330.319C363.701 328.228 357.355 327.589 351.127 328.456C344.899 329.323 338.97 331.67 333.835 335.301C328.701 338.931 324.512 343.74 321.62 349.323C318.727 354.906 317.215 361.102 317.21 367.39C317.191 376.52 320.376 385.367 326.21 392.39C313.612 397.715 303.498 407.611 297.9 420.09C294.319 417.495 290.433 415.349 286.33 413.7C290.839 408.11 293.731 401.392 294.692 394.275C295.654 387.158 294.649 379.913 291.785 373.327C288.922 366.741 284.31 361.065 278.449 356.914C272.589 352.763 265.703 350.296 258.54 349.78C253.141 349.369 247.715 350.087 242.609 351.888C237.502 353.689 232.827 356.533 228.88 360.24C224.935 363.926 221.789 368.381 219.636 373.332C217.482 378.282 216.367 383.622 216.36 389.02C216.341 398.15 219.526 406.997 225.36 414.02C221.422 415.676 217.699 417.802 214.27 420.35C208.574 407.433 198.045 397.26 184.94 392.01C189.445 386.419 192.334 379.701 193.294 372.585C194.254 365.47 193.248 358.227 190.385 351.642C187.522 345.057 182.911 339.381 177.053 335.23C171.195 331.078 164.312 328.609 157.15 328.09C151.751 327.679 146.325 328.397 141.219 330.198C136.112 331.999 131.437 334.843 127.49 338.55C123.544 342.245 120.399 346.712 118.251 351.673C116.102 356.634 114.996 361.984 115 367.39C114.981 376.52 118.166 385.367 124 392.39C114.178 396.547 105.8 403.507 99.9124 412.4C94.0252 421.293 90.8904 431.725 90.9 442.39V465C90.9 469.509 92.6911 473.833 95.8792 477.021C99.0673 480.209 103.391 482 107.9 482H192.32V486.66C192.32 491.169 194.111 495.493 197.299 498.681C200.487 501.869 204.811 503.66 209.32 503.66H303.3C307.809 503.66 312.133 501.869 315.321 498.681C318.509 495.493 320.3 491.169 320.3 486.66V482H404.17C408.679 482 413.003 480.209 416.191 477.021C419.379 473.833 421.17 469.509 421.17 465V442.44C421.207 431.608 417.99 421.015 411.934 412.034C405.879 403.052 397.265 396.097 387.21 392.07ZM192.21 464.07V468H107.83C107.034 468 106.271 467.684 105.709 467.121C105.146 466.559 104.83 465.796 104.83 465V442.44C104.819 433.971 107.478 425.714 112.43 418.844C117.381 411.973 124.373 406.839 132.41 404.17C134.233 403.57 135.869 402.509 137.161 401.091C138.452 399.672 139.355 397.943 139.782 396.073C140.209 394.202 140.144 392.253 139.596 390.415C139.047 388.576 138.032 386.911 136.65 385.58C133.029 382.068 130.539 377.556 129.498 372.621C128.457 367.686 128.912 362.553 130.805 357.878C132.699 353.203 135.944 349.199 140.126 346.38C144.308 343.56 149.236 342.052 154.28 342.05C154.89 342.05 155.52 342.05 156.14 342.12C162.269 342.565 168.027 345.223 172.343 349.597C176.659 353.972 179.238 359.766 179.6 365.9V367.33C179.605 370.704 178.937 374.045 177.635 377.158C176.334 380.271 174.425 383.093 172.02 385.46C170.654 386.788 169.659 388.45 169.133 390.281C168.607 392.112 168.568 394.049 169.02 395.9C169.467 397.785 170.398 399.521 171.723 400.935C173.047 402.348 174.718 403.391 176.57 403.96C182.931 405.931 188.701 409.455 193.359 414.215C198.017 418.974 201.416 424.818 203.25 431.22C196.082 440.68 192.217 452.231 192.25 464.1L192.21 464.07ZM306.3 486.66C306.3 487.456 305.984 488.219 305.421 488.781C304.859 489.344 304.096 489.66 303.3 489.66H209.25C208.454 489.66 207.691 489.344 207.129 488.781C206.566 488.219 206.25 487.456 206.25 486.66V464.1C206.244 455.632 208.905 447.378 213.856 440.508C218.806 433.638 225.795 428.503 233.83 425.83C235.653 425.23 237.289 424.169 238.581 422.751C239.872 421.332 240.775 419.603 241.202 417.733C241.629 415.862 241.564 413.913 241.016 412.075C240.467 410.236 239.452 408.571 238.07 407.24C234.449 403.728 231.959 399.216 230.918 394.281C229.877 389.346 230.332 384.213 232.225 379.538C234.119 374.863 237.364 370.859 241.546 368.04C245.728 365.22 250.656 363.712 255.7 363.71C256.32 363.71 256.94 363.71 257.56 363.78C262.42 364.133 267.074 365.88 270.966 368.811C274.858 371.743 277.822 375.734 279.502 380.308C281.182 384.881 281.508 389.842 280.44 394.596C279.372 399.35 276.955 403.695 273.48 407.11C272.118 408.443 271.125 410.107 270.599 411.938C270.073 413.77 270.032 415.708 270.48 417.56C270.927 419.445 271.859 421.18 273.184 422.594C274.508 424.007 276.179 425.05 278.03 425.62C286.239 428.166 293.414 433.278 298.503 440.204C303.591 447.13 306.324 455.506 306.3 464.1V486.66ZM407.16 465C407.16 465.796 406.844 466.559 406.281 467.121C405.719 467.684 404.956 468 404.16 468H320.3V464.1C320.332 451.996 316.308 440.23 308.87 430.68C310.738 424.516 314.059 418.89 318.554 414.277C323.049 409.664 328.586 406.198 334.7 404.17C336.522 403.569 338.157 402.507 339.448 401.088C340.738 399.669 341.64 397.94 342.066 396.07C342.491 394.199 342.426 392.251 341.877 390.413C341.327 388.575 340.312 386.91 338.93 385.58C335.309 382.068 332.819 377.556 331.778 372.621C330.737 367.686 331.192 362.553 333.085 357.878C334.979 353.203 338.224 349.199 342.406 346.38C346.588 343.56 351.516 342.052 356.56 342.05C357.18 342.05 357.81 342.05 358.43 342.12C364.556 342.565 370.312 345.221 374.626 349.594C378.94 353.967 381.518 359.758 381.88 365.89V367.33C381.885 370.704 381.217 374.045 379.915 377.158C378.614 380.271 376.705 383.093 374.3 385.46C372.933 386.787 371.936 388.449 371.41 390.281C370.884 392.112 370.846 394.049 371.3 395.9C371.747 397.785 372.678 399.521 374.003 400.935C375.327 402.348 376.998 403.391 378.85 403.96C387.058 406.505 394.231 411.617 399.317 418.544C404.402 425.471 407.13 433.847 407.1 442.44L407.16 465Z" fill="#58812A"/>
<path d="M265.43 325.25H265.75C296.339 325.259 325.734 313.377 347.724 292.115C369.715 270.852 382.579 241.874 383.599 211.302C384.62 180.73 373.716 150.959 353.192 128.277C332.668 105.596 304.131 91.7805 273.61 89.75V69.75C275.743 69.9743 277.886 70.0877 280.03 70.09C288.44 70.09 299.77 68.33 308.9 60.56C319.9 51.19 324.75 35.87 323.24 15.02C323.12 13.3429 322.4 11.7652 321.212 10.5753C320.023 9.38544 318.447 8.66297 316.77 8.53998C295.92 7.02998 280.6 11.87 271.23 22.89C269.658 24.7481 268.274 26.758 267.1 28.89C265.926 26.758 264.542 24.7481 262.97 22.89C253.6 11.89 238.27 7.02998 217.43 8.53998C215.754 8.67329 214.182 9.4055 213.001 10.6027C211.82 11.7999 211.11 13.3821 211 15.06C209.5 35.91 214.32 51.23 225.35 60.6C234.48 68.37 245.81 70.13 254.21 70.13C256.21 70.13 258.06 70.03 259.66 69.88V89.65C248.172 90.2273 236.831 92.4881 226 96.36C209.329 102.379 194.217 112.052 181.77 124.67C165.486 141.21 154.447 162.19 150.038 184.979C145.629 207.767 148.046 231.351 156.986 252.771C165.925 274.192 180.99 292.496 200.291 305.39C219.591 318.284 242.269 325.192 265.48 325.25H265.43ZM281.89 32C287.37 25.56 296.64 22.31 309.51 22.31C309.51 35.15 306.28 44.41 299.88 49.89C292.4 56.29 281.88 56.47 275.88 55.95C275.38 50 275.56 39.44 281.89 32ZM258.31 55.94C252.31 56.47 241.79 56.29 234.31 49.94C227.91 44.46 224.68 35.2 224.68 22.36C237.52 22.36 246.77 25.59 252.25 31.99C258.66 39.42 258.84 50 258.31 55.94ZM351.39 148.55C363.367 165.923 369.733 186.549 369.63 207.65C369.618 211.305 369.415 214.956 369.02 218.59C366.02 213.72 364.6 213.24 363.25 212.79C361.55 212.22 352.11 207.93 343.68 203.72C343.477 203.622 343.286 203.501 343.11 203.36C342.93 202.36 344.11 199.45 344.63 198.19C345.254 196.785 345.746 195.326 346.1 193.83C347 189.32 344.05 184.66 340.63 179.27C339.37 177.27 337.27 173.97 337.01 172.88C335.62 164.55 324.56 160.88 312.85 156.96C296.76 151.59 284.8 146.16 277.31 140.81L276.99 140.57C278.575 138.843 280.32 137.27 282.2 135.87C286.12 132.74 289.83 129.78 289.82 125.33C289.96 123.33 293.19 115.43 296.82 108.23C319.003 115.198 338.214 129.392 351.39 148.55ZM191.7 134.49C210.035 115.801 234.775 104.758 260.93 103.59C262.48 103.52 264.08 103.48 265.7 103.48H266C272.328 103.497 278.641 104.093 284.86 105.26C282.27 110.59 278.61 118.8 277.92 123.77C277.18 124.5 275.72 125.67 274.69 126.49C270.14 130.13 264.47 134.66 264.69 141.12C264.76 143.63 265.8 147.31 270.37 150.58C278.95 156.71 291.62 162.52 309.09 168.34C313.76 169.9 323.36 173.1 325.29 175.34C325.96 178.51 328.08 181.86 330.52 185.7C331.885 187.729 333.108 189.851 334.18 192.05C334.01 192.53 333.75 193.17 333.54 193.68C331.84 197.85 327.33 208.95 338.35 214.46C344.98 217.78 353.97 222 358.06 223.65C360.707 228.15 363.087 232.801 365.19 237.58C361.998 248.12 357.136 258.08 350.79 267.08C347.598 271.621 344.05 275.901 340.18 279.88C330.529 289.849 318.965 297.767 306.181 303.159C293.396 308.551 279.655 311.307 265.78 311.26H265.49C252.557 311.223 239.745 308.761 227.72 304C230.822 300.313 232.815 295.823 233.47 291.05C234.115 286.03 232.832 280.952 229.88 276.84L229.05 275.84L227.86 275.24C223.02 272.81 217.96 267.38 215.13 263.9C217.01 256.48 219.43 243.82 215.98 237.67C215.422 236.626 214.658 235.705 213.735 234.962C212.813 234.22 211.75 233.672 210.61 233.35C200.739 230.608 192.043 224.698 185.86 216.53C185.58 203.97 173.59 181.34 168.17 171.73C168.34 171.27 168.49 170.81 168.66 170.35C173.763 156.925 181.61 144.711 191.7 134.49ZM163.55 188.57C169.72 200.89 174.45 212.95 173.84 217.41L173.56 219.46L174.61 221.25C175.01 221.94 184.5 237.79 205.69 244.37C206.12 247.69 204.88 256.14 202.79 263.54L202.01 266.31L203.68 268.66C204.02 269.13 211.61 279.66 220.88 285.06C221.517 286.493 221.752 288.073 221.56 289.63C221.21 292.53 219.43 295.63 216.36 298.72C199.826 289.815 186.022 276.586 176.423 260.445C166.824 244.304 161.79 225.859 161.86 207.08C161.878 200.872 162.444 194.678 163.55 188.57Z" fill="#58812A"/>
</svg>
