<svg width="155" height="59" viewBox="0 0 155 59" fill="none" xmlns="http://www.w3.org/2000/svg">
<path d="M72.23 35V24.425H79.07V25.685H73.73V29H78.755V30.26H73.73V33.74H79.07V35H72.23ZM84.3644 35.135C83.6144 35.135 82.9644 34.98 82.4144 34.67C81.8744 34.35 81.4544 33.905 81.1544 33.335C80.8544 32.755 80.7044 32.075 80.7044 31.295C80.7044 30.135 81.0344 29.22 81.6944 28.55C82.3544 27.88 83.2444 27.545 84.3644 27.545C84.8244 27.545 85.2794 27.625 85.7294 27.785C86.1794 27.945 86.5494 28.165 86.8394 28.445L86.3594 29.51C86.0794 29.25 85.7694 29.06 85.4294 28.94C85.0994 28.81 84.7844 28.745 84.4844 28.745C83.7744 28.745 83.2244 28.97 82.8344 29.42C82.4544 29.86 82.2644 30.49 82.2644 31.31C82.2644 32.13 82.4544 32.775 82.8344 33.245C83.2244 33.705 83.7744 33.935 84.4844 33.935C84.7844 33.935 85.0994 33.875 85.4294 33.755C85.7694 33.625 86.0794 33.43 86.3594 33.17L86.8394 34.25C86.5494 34.52 86.1744 34.735 85.7144 34.895C85.2644 35.055 84.8144 35.135 84.3644 35.135ZM91.4749 35.135C90.7349 35.135 90.0949 34.98 89.5549 34.67C89.0149 34.36 88.5949 33.925 88.2949 33.365C88.0049 32.795 87.8599 32.12 87.8599 31.34C87.8599 30.56 88.0049 29.89 88.2949 29.33C88.5949 28.76 89.0149 28.32 89.5549 28.01C90.0949 27.7 90.7349 27.545 91.4749 27.545C92.1949 27.545 92.8249 27.7 93.3649 28.01C93.9049 28.32 94.3249 28.76 94.6249 29.33C94.9249 29.89 95.0749 30.56 95.0749 31.34C95.0749 32.12 94.9249 32.795 94.6249 33.365C94.3249 33.925 93.9049 34.36 93.3649 34.67C92.8249 34.98 92.1949 35.135 91.4749 35.135ZM91.4749 33.965C92.0949 33.965 92.5949 33.74 92.9749 33.29C93.3549 32.84 93.5449 32.19 93.5449 31.34C93.5449 30.49 93.3549 29.845 92.9749 29.405C92.5949 28.955 92.0949 28.73 91.4749 28.73C90.8449 28.73 90.3399 28.955 89.9599 29.405C89.5799 29.845 89.3899 30.49 89.3899 31.34C89.3899 32.19 89.5799 32.84 89.9599 33.29C90.3399 33.74 90.8449 33.965 91.4749 33.965Z" fill="#19233B"/>
<path d="M102.191 35.135C101.041 35.135 100.071 34.92 99.2813 34.49C98.4913 34.05 97.8913 33.425 97.4813 32.615C97.0813 31.805 96.8813 30.84 96.8813 29.72C96.8813 28.61 97.0863 27.65 97.4963 26.84C97.9063 26.02 98.5013 25.39 99.2813 24.95C100.061 24.51 100.996 24.29 102.086 24.29C102.836 24.29 103.531 24.4 104.171 24.62C104.811 24.84 105.346 25.155 105.776 25.565L105.221 26.78C104.741 26.38 104.251 26.095 103.751 25.925C103.251 25.745 102.696 25.655 102.086 25.655C100.916 25.655 100.026 26.01 99.4163 26.72C98.8063 27.42 98.5013 28.42 98.5013 29.72C98.5013 31.05 98.8113 32.06 99.4313 32.75C100.061 33.44 101.001 33.785 102.251 33.785C103.011 33.785 103.766 33.66 104.516 33.41V30.575H101.936V29.405H105.821V34.385C105.371 34.605 104.811 34.785 104.141 34.925C103.481 35.065 102.831 35.135 102.191 35.135ZM111.783 35.135C110.583 35.135 109.638 34.8 108.948 34.13C108.258 33.45 107.913 32.525 107.913 31.355C107.913 30.605 108.063 29.945 108.363 29.375C108.673 28.795 109.098 28.345 109.638 28.025C110.178 27.705 110.798 27.545 111.498 27.545C112.508 27.545 113.303 27.87 113.883 28.52C114.463 29.16 114.753 30.045 114.753 31.175V31.685H109.383C109.493 33.205 110.298 33.965 111.798 33.965C112.218 33.965 112.628 33.9 113.028 33.77C113.438 33.64 113.823 33.425 114.183 33.125L114.633 34.175C114.303 34.475 113.878 34.71 113.358 34.88C112.838 35.05 112.313 35.135 111.783 35.135ZM111.558 28.61C110.928 28.61 110.428 28.805 110.058 29.195C109.688 29.585 109.463 30.105 109.383 30.755H113.478C113.448 30.075 113.268 29.55 112.938 29.18C112.608 28.8 112.148 28.61 111.558 28.61ZM119.27 35.135C118.67 35.135 118.11 35.06 117.59 34.91C117.07 34.75 116.635 34.53 116.285 34.25L116.72 33.23C117.09 33.49 117.495 33.69 117.935 33.83C118.385 33.97 118.835 34.04 119.285 34.04C119.815 34.04 120.215 33.945 120.485 33.755C120.755 33.565 120.89 33.31 120.89 32.99C120.89 32.73 120.8 32.53 120.62 32.39C120.44 32.24 120.17 32.125 119.81 32.045L118.385 31.76C117.125 31.5 116.495 30.85 116.495 29.81C116.495 29.12 116.77 28.57 117.32 28.16C117.87 27.75 118.59 27.545 119.48 27.545C119.99 27.545 120.475 27.62 120.935 27.77C121.405 27.92 121.795 28.145 122.105 28.445L121.67 29.465C121.37 29.205 121.025 29.005 120.635 28.865C120.245 28.725 119.86 28.655 119.48 28.655C118.96 28.655 118.565 28.755 118.295 28.955C118.025 29.145 117.89 29.405 117.89 29.735C117.89 30.235 118.22 30.555 118.88 30.695L120.305 30.98C120.955 31.11 121.445 31.33 121.775 31.64C122.115 31.95 122.285 32.37 122.285 32.9C122.285 33.6 122.01 34.15 121.46 34.55C120.91 34.94 120.18 35.135 119.27 35.135ZM127.317 35.135C126.397 35.135 125.712 34.9 125.262 34.43C124.812 33.96 124.587 33.28 124.587 32.39V28.85H123.162V27.68H124.587V25.475H126.102V27.68H128.367V28.85H126.102V32.27C126.102 32.8 126.212 33.2 126.432 33.47C126.662 33.74 127.032 33.875 127.542 33.875C127.702 33.875 127.857 33.86 128.007 33.83C128.157 33.79 128.307 33.745 128.457 33.695L128.697 34.835C128.547 34.925 128.337 34.995 128.067 35.045C127.807 35.105 127.557 35.135 127.317 35.135ZM133.082 35.135C132.342 35.135 131.702 34.98 131.162 34.67C130.622 34.36 130.202 33.925 129.902 33.365C129.612 32.795 129.467 32.12 129.467 31.34C129.467 30.56 129.612 29.89 129.902 29.33C130.202 28.76 130.622 28.32 131.162 28.01C131.702 27.7 132.342 27.545 133.082 27.545C133.802 27.545 134.432 27.7 134.972 28.01C135.512 28.32 135.932 28.76 136.232 29.33C136.532 29.89 136.682 30.56 136.682 31.34C136.682 32.12 136.532 32.795 136.232 33.365C135.932 33.925 135.512 34.36 134.972 34.67C134.432 34.98 133.802 35.135 133.082 35.135ZM133.082 33.965C133.702 33.965 134.202 33.74 134.582 33.29C134.962 32.84 135.152 32.19 135.152 31.34C135.152 30.49 134.962 29.845 134.582 29.405C134.202 28.955 133.702 28.73 133.082 28.73C132.452 28.73 131.947 28.955 131.567 29.405C131.187 29.845 130.997 30.49 130.997 31.34C130.997 32.19 131.187 32.84 131.567 33.29C131.947 33.74 132.452 33.965 133.082 33.965ZM138.684 35V27.68H140.154V28.985C140.534 28.115 141.324 27.63 142.524 27.53L143.019 27.5L143.124 28.79L142.209 28.88C140.879 29.01 140.214 29.695 140.214 30.935V35H138.684Z" fill="#8AC942"/>
<path d="M102.191 35.135C101.041 35.135 100.071 34.92 99.2813 34.49C98.4913 34.05 97.8913 33.425 97.4813 32.615C97.0813 31.805 96.8813 30.84 96.8813 29.72C96.8813 28.61 97.0863 27.65 97.4963 26.84C97.9063 26.02 98.5013 25.39 99.2813 24.95C100.061 24.51 100.996 24.29 102.086 24.29C102.836 24.29 103.531 24.4 104.171 24.62C104.811 24.84 105.346 25.155 105.776 25.565L105.221 26.78C104.741 26.38 104.251 26.095 103.751 25.925C103.251 25.745 102.696 25.655 102.086 25.655C100.916 25.655 100.026 26.01 99.4163 26.72C98.8063 27.42 98.5013 28.42 98.5013 29.72C98.5013 31.05 98.8113 32.06 99.4313 32.75C100.061 33.44 101.001 33.785 102.251 33.785C103.011 33.785 103.766 33.66 104.516 33.41V30.575H101.936V29.405H105.821V34.385C105.371 34.605 104.811 34.785 104.141 34.925C103.481 35.065 102.831 35.135 102.191 35.135ZM111.783 35.135C110.583 35.135 109.638 34.8 108.948 34.13C108.258 33.45 107.913 32.525 107.913 31.355C107.913 30.605 108.063 29.945 108.363 29.375C108.673 28.795 109.098 28.345 109.638 28.025C110.178 27.705 110.798 27.545 111.498 27.545C112.508 27.545 113.303 27.87 113.883 28.52C114.463 29.16 114.753 30.045 114.753 31.175V31.685H109.383C109.493 33.205 110.298 33.965 111.798 33.965C112.218 33.965 112.628 33.9 113.028 33.77C113.438 33.64 113.823 33.425 114.183 33.125L114.633 34.175C114.303 34.475 113.878 34.71 113.358 34.88C112.838 35.05 112.313 35.135 111.783 35.135ZM111.558 28.61C110.928 28.61 110.428 28.805 110.058 29.195C109.688 29.585 109.463 30.105 109.383 30.755H113.478C113.448 30.075 113.268 29.55 112.938 29.18C112.608 28.8 112.148 28.61 111.558 28.61ZM119.27 35.135C118.67 35.135 118.11 35.06 117.59 34.91C117.07 34.75 116.635 34.53 116.285 34.25L116.72 33.23C117.09 33.49 117.495 33.69 117.935 33.83C118.385 33.97 118.835 34.04 119.285 34.04C119.815 34.04 120.215 33.945 120.485 33.755C120.755 33.565 120.89 33.31 120.89 32.99C120.89 32.73 120.8 32.53 120.62 32.39C120.44 32.24 120.17 32.125 119.81 32.045L118.385 31.76C117.125 31.5 116.495 30.85 116.495 29.81C116.495 29.12 116.77 28.57 117.32 28.16C117.87 27.75 118.59 27.545 119.48 27.545C119.99 27.545 120.475 27.62 120.935 27.77C121.405 27.92 121.795 28.145 122.105 28.445L121.67 29.465C121.37 29.205 121.025 29.005 120.635 28.865C120.245 28.725 119.86 28.655 119.48 28.655C118.96 28.655 118.565 28.755 118.295 28.955C118.025 29.145 117.89 29.405 117.89 29.735C117.89 30.235 118.22 30.555 118.88 30.695L120.305 30.98C120.955 31.11 121.445 31.33 121.775 31.64C122.115 31.95 122.285 32.37 122.285 32.9C122.285 33.6 122.01 34.15 121.46 34.55C120.91 34.94 120.18 35.135 119.27 35.135ZM127.317 35.135C126.397 35.135 125.712 34.9 125.262 34.43C124.812 33.96 124.587 33.28 124.587 32.39V28.85H123.162V27.68H124.587V25.475H126.102V27.68H128.367V28.85H126.102V32.27C126.102 32.8 126.212 33.2 126.432 33.47C126.662 33.74 127.032 33.875 127.542 33.875C127.702 33.875 127.857 33.86 128.007 33.83C128.157 33.79 128.307 33.745 128.457 33.695L128.697 34.835C128.547 34.925 128.337 34.995 128.067 35.045C127.807 35.105 127.557 35.135 127.317 35.135ZM133.082 35.135C132.342 35.135 131.702 34.98 131.162 34.67C130.622 34.36 130.202 33.925 129.902 33.365C129.612 32.795 129.467 32.12 129.467 31.34C129.467 30.56 129.612 29.89 129.902 29.33C130.202 28.76 130.622 28.32 131.162 28.01C131.702 27.7 132.342 27.545 133.082 27.545C133.802 27.545 134.432 27.7 134.972 28.01C135.512 28.32 135.932 28.76 136.232 29.33C136.532 29.89 136.682 30.56 136.682 31.34C136.682 32.12 136.532 32.795 136.232 33.365C135.932 33.925 135.512 34.36 134.972 34.67C134.432 34.98 133.802 35.135 133.082 35.135ZM133.082 33.965C133.702 33.965 134.202 33.74 134.582 33.29C134.962 32.84 135.152 32.19 135.152 31.34C135.152 30.49 134.962 29.845 134.582 29.405C134.202 28.955 133.702 28.73 133.082 28.73C132.452 28.73 131.947 28.955 131.567 29.405C131.187 29.845 130.997 30.49 130.997 31.34C130.997 32.19 131.187 32.84 131.567 33.29C131.947 33.74 132.452 33.965 133.082 33.965ZM138.684 35V27.68H140.154V28.985C140.534 28.115 141.324 27.63 142.524 27.53L143.019 27.5L143.124 28.79L142.209 28.88C140.879 29.01 140.214 29.695 140.214 30.935V35H138.684Z" fill="black" fill-opacity="0.2"/>
<path d="M102.191 35.135C101.041 35.135 100.071 34.92 99.2813 34.49C98.4913 34.05 97.8913 33.425 97.4813 32.615C97.0813 31.805 96.8813 30.84 96.8813 29.72C96.8813 28.61 97.0863 27.65 97.4963 26.84C97.9063 26.02 98.5013 25.39 99.2813 24.95C100.061 24.51 100.996 24.29 102.086 24.29C102.836 24.29 103.531 24.4 104.171 24.62C104.811 24.84 105.346 25.155 105.776 25.565L105.221 26.78C104.741 26.38 104.251 26.095 103.751 25.925C103.251 25.745 102.696 25.655 102.086 25.655C100.916 25.655 100.026 26.01 99.4163 26.72C98.8063 27.42 98.5013 28.42 98.5013 29.72C98.5013 31.05 98.8113 32.06 99.4313 32.75C100.061 33.44 101.001 33.785 102.251 33.785C103.011 33.785 103.766 33.66 104.516 33.41V30.575H101.936V29.405H105.821V34.385C105.371 34.605 104.811 34.785 104.141 34.925C103.481 35.065 102.831 35.135 102.191 35.135ZM111.783 35.135C110.583 35.135 109.638 34.8 108.948 34.13C108.258 33.45 107.913 32.525 107.913 31.355C107.913 30.605 108.063 29.945 108.363 29.375C108.673 28.795 109.098 28.345 109.638 28.025C110.178 27.705 110.798 27.545 111.498 27.545C112.508 27.545 113.303 27.87 113.883 28.52C114.463 29.16 114.753 30.045 114.753 31.175V31.685H109.383C109.493 33.205 110.298 33.965 111.798 33.965C112.218 33.965 112.628 33.9 113.028 33.77C113.438 33.64 113.823 33.425 114.183 33.125L114.633 34.175C114.303 34.475 113.878 34.71 113.358 34.88C112.838 35.05 112.313 35.135 111.783 35.135ZM111.558 28.61C110.928 28.61 110.428 28.805 110.058 29.195C109.688 29.585 109.463 30.105 109.383 30.755H113.478C113.448 30.075 113.268 29.55 112.938 29.18C112.608 28.8 112.148 28.61 111.558 28.61ZM119.27 35.135C118.67 35.135 118.11 35.06 117.59 34.91C117.07 34.75 116.635 34.53 116.285 34.25L116.72 33.23C117.09 33.49 117.495 33.69 117.935 33.83C118.385 33.97 118.835 34.04 119.285 34.04C119.815 34.04 120.215 33.945 120.485 33.755C120.755 33.565 120.89 33.31 120.89 32.99C120.89 32.73 120.8 32.53 120.62 32.39C120.44 32.24 120.17 32.125 119.81 32.045L118.385 31.76C117.125 31.5 116.495 30.85 116.495 29.81C116.495 29.12 116.77 28.57 117.32 28.16C117.87 27.75 118.59 27.545 119.48 27.545C119.99 27.545 120.475 27.62 120.935 27.77C121.405 27.92 121.795 28.145 122.105 28.445L121.67 29.465C121.37 29.205 121.025 29.005 120.635 28.865C120.245 28.725 119.86 28.655 119.48 28.655C118.96 28.655 118.565 28.755 118.295 28.955C118.025 29.145 117.89 29.405 117.89 29.735C117.89 30.235 118.22 30.555 118.88 30.695L120.305 30.98C120.955 31.11 121.445 31.33 121.775 31.64C122.115 31.95 122.285 32.37 122.285 32.9C122.285 33.6 122.01 34.15 121.46 34.55C120.91 34.94 120.18 35.135 119.27 35.135ZM127.317 35.135C126.397 35.135 125.712 34.9 125.262 34.43C124.812 33.96 124.587 33.28 124.587 32.39V28.85H123.162V27.68H124.587V25.475H126.102V27.68H128.367V28.85H126.102V32.27C126.102 32.8 126.212 33.2 126.432 33.47C126.662 33.74 127.032 33.875 127.542 33.875C127.702 33.875 127.857 33.86 128.007 33.83C128.157 33.79 128.307 33.745 128.457 33.695L128.697 34.835C128.547 34.925 128.337 34.995 128.067 35.045C127.807 35.105 127.557 35.135 127.317 35.135ZM133.082 35.135C132.342 35.135 131.702 34.98 131.162 34.67C130.622 34.36 130.202 33.925 129.902 33.365C129.612 32.795 129.467 32.12 129.467 31.34C129.467 30.56 129.612 29.89 129.902 29.33C130.202 28.76 130.622 28.32 131.162 28.01C131.702 27.7 132.342 27.545 133.082 27.545C133.802 27.545 134.432 27.7 134.972 28.01C135.512 28.32 135.932 28.76 136.232 29.33C136.532 29.89 136.682 30.56 136.682 31.34C136.682 32.12 136.532 32.795 136.232 33.365C135.932 33.925 135.512 34.36 134.972 34.67C134.432 34.98 133.802 35.135 133.082 35.135ZM133.082 33.965C133.702 33.965 134.202 33.74 134.582 33.29C134.962 32.84 135.152 32.19 135.152 31.34C135.152 30.49 134.962 29.845 134.582 29.405C134.202 28.955 133.702 28.73 133.082 28.73C132.452 28.73 131.947 28.955 131.567 29.405C131.187 29.845 130.997 30.49 130.997 31.34C130.997 32.19 131.187 32.84 131.567 33.29C131.947 33.74 132.452 33.965 133.082 33.965ZM138.684 35V27.68H140.154V28.985C140.534 28.115 141.324 27.63 142.524 27.53L143.019 27.5L143.124 28.79L142.209 28.88C140.879 29.01 140.214 29.695 140.214 30.935V35H138.684Z" fill="black" fill-opacity="0.2"/>
<path d="M56.2768 45.0662C56.0841 45.2513 55.976 45.5022 55.976 45.7638C55.976 46.0254 56.0841 46.2763 56.2768 46.4615C56.4206 46.5995 56.6039 46.6935 56.8035 46.7316C57.0031 46.7697 57.21 46.7502 57.398 46.6755C57.586 46.6009 57.7467 46.4744 57.8598 46.3121C57.9728 46.1498 58.0332 45.959 58.0332 45.7638C58.0332 45.5686 57.9728 45.3778 57.8598 45.2155C57.7467 45.0532 57.586 44.9268 57.398 44.8521C57.21 44.7774 57.0031 44.7579 56.8035 44.796C56.6039 44.8341 56.4206 44.9281 56.2768 45.0662ZM49.0493 51.1973C48.9538 51.1056 48.8404 51.0328 48.7156 50.9832C48.5908 50.9335 48.457 50.908 48.3219 50.908C48.1868 50.908 48.053 50.9335 47.9282 50.9832C47.8034 51.0328 47.69 51.1056 47.5946 51.1973C47.4991 51.2889 47.4234 51.3976 47.3718 51.5173C47.3201 51.637 47.2936 51.7653 47.2936 51.8948C47.2937 52.0243 47.3203 52.1526 47.372 52.2722C47.4237 52.3919 47.4995 52.5006 47.595 52.5921C47.6906 52.6837 47.8039 52.7563 47.9287 52.8058C48.0535 52.8553 48.1872 52.8808 48.3222 52.8808C48.4573 52.8807 48.591 52.8552 48.7157 52.8056C48.8405 52.756 48.9538 52.6833 49.0493 52.5917C49.2418 52.4066 49.35 52.1559 49.35 51.8945C49.35 51.633 49.2418 51.3823 49.0493 51.1973ZM31.6839 51.1973C31.5885 51.1056 31.4752 51.0329 31.3505 50.9832C31.2258 50.9336 31.0921 50.9081 30.9571 50.9081C30.822 50.9081 30.6883 50.9336 30.5636 50.9832C30.4389 51.0329 30.3256 51.1056 30.2302 51.1973C30.0865 51.3352 29.9886 51.5108 29.9489 51.7021C29.9093 51.8933 29.9297 52.0915 30.0075 52.2717C30.0853 52.4518 30.217 52.6058 30.386 52.7141C30.5551 52.8224 30.7538 52.8802 30.9571 52.8802C31.1603 52.8802 31.3591 52.8224 31.5281 52.7141C31.6971 52.6058 31.8288 52.4518 31.9067 52.2717C31.9845 52.0915 32.0048 51.8933 31.9652 51.7021C31.9255 51.5108 31.8277 51.3352 31.6839 51.1973ZM38.9124 45.0662C38.7687 45.204 38.6708 45.3797 38.6311 45.571C38.5915 45.7622 38.6119 45.9604 38.6897 46.1406C38.7675 46.3207 38.8992 46.4747 39.0682 46.583C39.2372 46.6913 39.436 46.7491 39.6392 46.7491C39.8425 46.7491 40.0412 46.6913 40.2103 46.583C40.3793 46.4747 40.511 46.3207 40.5888 46.1406C40.6666 45.9604 40.687 45.7622 40.6474 45.571C40.6077 45.3797 40.5098 45.204 40.3661 45.0662C40.2707 44.9746 40.1573 44.902 40.0326 44.8524C39.9079 44.8028 39.7742 44.7773 39.6392 44.7773C39.5042 44.7773 39.3706 44.8028 39.2459 44.8524C39.1211 44.902 39.0078 44.9746 38.9124 45.0662ZM21.547 45.0662C21.4031 45.2041 21.3051 45.38 21.2654 45.5714C21.2257 45.7628 21.246 45.9613 21.3239 46.1416C21.4017 46.322 21.5336 46.4761 21.7028 46.5845C21.872 46.693 22.0709 46.7509 22.2744 46.7509C22.4779 46.7509 22.6768 46.693 22.846 46.5845C23.0152 46.4761 23.1471 46.322 23.2249 46.1416C23.3028 45.9613 23.3231 45.7628 23.2834 45.5714C23.2437 45.38 23.1457 45.2041 23.0017 45.0662C22.8087 44.8814 22.5471 44.7776 22.2744 44.7776C22.0017 44.7776 21.7401 44.8814 21.547 45.0662ZM56.248 31.4609L58.2578 24.5679C58.4866 23.7897 58.448 22.9615 58.1478 22.206L56.8414 18.9013L57.2051 17.6483L57.5975 17.7529C57.6563 17.7689 57.7172 17.777 57.7783 17.7768C57.9245 17.7768 58.0666 17.7309 58.1831 17.6463C58.2995 17.5616 58.3839 17.4427 58.4234 17.3077L58.8062 16.0042C58.8998 15.6823 58.8564 15.338 58.6856 15.0468C58.5148 14.7556 58.2305 14.5413 57.8951 14.451L54.4861 13.533C54.32 13.4883 54.1463 13.4755 53.975 13.4952C53.8036 13.5149 53.638 13.5669 53.4877 13.648C53.3373 13.7292 53.205 13.838 53.0985 13.9682C52.992 14.0984 52.9133 14.2475 52.8669 14.4069L52.484 15.7104C52.4364 15.8745 52.4586 16.05 52.5458 16.1984C52.633 16.3468 52.7781 16.4559 52.9492 16.5017L53.2812 16.5898L52.8879 17.9393L50.0484 20.0157C49.3668 20.5156 48.8726 21.2138 48.6396 22.0059L46.2633 30.1482L40.9805 29.3019C40.8762 29.2844 40.7719 29.2707 40.6676 29.2578V24.4761C41.4246 25.0902 42.4859 25.4005 43.844 25.4005C44.0532 25.4005 44.2698 25.3932 44.4938 25.3785C44.6774 25.3664 44.8504 25.2913 44.9809 25.1669C45.1115 25.0424 45.191 24.8771 45.2049 24.701C45.3398 22.9752 44.913 21.691 43.9339 20.8823C42.862 19.9964 41.438 19.9726 40.6676 20.0414V17.9172C41.4246 18.5313 42.4859 18.8416 43.844 18.8416C44.0532 18.8416 44.2698 18.8343 44.4938 18.8196C44.6774 18.8075 44.8504 18.7324 44.9809 18.608C45.1115 18.4836 45.191 18.3182 45.2049 18.1421C45.3398 16.4163 44.913 15.1321 43.9339 14.3234C42.4228 13.074 40.212 13.5394 40.1182 13.5605C40.0962 13.5651 40.0761 13.5725 40.0541 13.5789C40.0321 13.5853 40.012 13.5651 39.99 13.5605C39.8943 13.5404 37.6864 13.0749 36.1753 14.3243C35.1934 15.1321 34.7694 16.4163 34.9062 18.1421C34.9201 18.3182 34.9996 18.4836 35.1302 18.608C35.2607 18.7324 35.4337 18.8075 35.6173 18.8196C35.8413 18.8343 36.0579 18.8416 36.2671 18.8416C37.5563 18.8416 38.5822 18.5607 39.3296 18.0054V20.0322C38.5391 19.9771 37.1993 20.0377 36.1772 20.8823C35.1981 21.691 34.7713 22.9752 34.9062 24.701C34.9201 24.8771 34.9996 25.0424 35.1302 25.1669C35.2607 25.2913 35.4337 25.3664 35.6173 25.3785C35.8413 25.3932 36.0579 25.4005 36.2671 25.4005C37.5563 25.4005 38.5822 25.1196 39.3296 24.5642V29.1835C38.8928 29.1894 38.4569 29.2246 38.0252 29.289L33.8076 29.9316L29.0904 14.8228C28.994 14.5141 28.7739 14.2547 28.4784 14.1015C28.1829 13.9484 27.8361 13.9139 27.5141 14.0058L25.5532 14.5703C25.3938 14.6162 25.2455 14.6918 25.1165 14.7928C24.9876 14.8937 24.8807 15.018 24.8019 15.1585C24.7231 15.2991 24.6739 15.4532 24.6571 15.612C24.6404 15.7708 24.6564 15.9312 24.7043 16.084L25.6403 19.083L22.4017 20.0111L21.4657 17.0121C21.3691 16.7036 21.149 16.4444 20.8536 16.2912C20.5581 16.1381 20.2114 16.1035 19.8895 16.1951L17.9285 16.7578C17.6068 16.8508 17.3367 17.0624 17.1776 17.3462C17.0184 17.6301 16.9832 17.9629 17.0796 18.2716L21.1958 31.4609H15.7924V32.7461H21.5968L22.417 35.3752C22.4887 35.6053 22.607 35.8196 22.7651 36.0058C22.9232 36.1921 23.1181 36.3466 23.3385 36.4605C23.559 36.5744 23.8007 36.6455 24.0498 36.6697C24.299 36.6939 24.5506 36.6708 24.7904 36.6016L33.1501 34.2011C33.6328 34.0599 34.0379 33.7416 34.2771 33.3154C34.5164 32.8893 34.5705 32.3897 34.4277 31.9254L34.1933 31.1727L38.2329 30.5586C38.5951 30.5033 38.961 30.4727 39.3277 30.4668V33.0059L35.9207 35.6138C35.8421 35.674 35.7787 35.7504 35.7352 35.8374C35.6916 35.9243 35.669 36.0195 35.669 36.116V38.1823L34.1665 39.528C34.1022 39.5857 34.0504 39.6549 34.014 39.7317C33.9776 39.8085 33.9573 39.8915 33.9543 39.9758C33.9513 40.0602 33.9657 40.1443 33.9966 40.2233C34.0275 40.3023 34.0743 40.3747 34.1344 40.4364C34.1945 40.498 34.2666 40.5477 34.3467 40.5827C34.4268 40.6176 34.5133 40.637 34.6013 40.6399C34.6892 40.6427 34.7768 40.6289 34.8592 40.5993C34.9416 40.5697 35.0171 40.5248 35.0814 40.4671L36.3533 39.327L37.7266 40.4809C37.8603 40.5933 38.035 40.6501 38.2123 40.6389C38.3896 40.6277 38.555 40.5494 38.6722 40.4212C38.7893 40.293 38.8486 40.1255 38.8369 39.9554C38.8252 39.7853 38.7436 39.6266 38.61 39.5143L37.0117 38.1713V36.4271L40.0005 34.1396L42.9903 36.4271V38.4632C42.9904 38.5615 43.014 38.6585 43.0593 38.7466C43.1046 38.8348 43.1704 38.9118 43.2516 38.9718L45.3321 40.5084C45.4732 40.6083 45.6494 40.6512 45.8231 40.6278C45.9967 40.6045 46.1539 40.5168 46.2608 40.3835C46.3678 40.2503 46.4161 40.0821 46.3952 39.9152C46.3744 39.7482 46.2862 39.5957 46.1495 39.4904L44.3311 38.1465V36.1178C44.3311 36.0213 44.3085 35.9261 44.2649 35.8392C44.2214 35.7523 44.1579 35.6759 44.0794 35.6157L40.6676 33.0077V30.5567C40.6982 30.5567 40.7288 30.5641 40.7633 30.5696L45.9035 31.3958L45.5436 32.6286C45.4592 32.9182 45.435 33.2208 45.4725 33.5194C45.5099 33.8179 45.6084 34.1064 45.7621 34.3685C45.9159 34.6305 46.1219 34.8609 46.3685 35.0466C46.6151 35.2322 46.8974 35.3694 47.1993 35.4504L52.2122 36.7971C52.5141 36.8785 52.8298 36.902 53.1411 36.8662C53.4525 36.8304 53.7534 36.7361 54.0267 36.5885C54.3 36.441 54.5403 36.2432 54.7337 36.0065C54.9272 35.7698 55.0701 35.4988 55.1542 35.209L55.8652 32.7461H63.1875V31.4609H56.248ZM40.9681 21.4918C41.505 21.4615 42.351 21.5092 42.9396 21.9994C43.4181 22.3951 43.6688 23.0432 43.6956 23.9272C42.6429 23.9061 41.882 23.6463 41.4447 23.1506C40.9939 22.6484 40.9413 21.9489 40.9681 21.4918ZM40.9681 14.9329C41.5031 14.9035 42.3472 14.9504 42.9348 15.436C43.4133 15.8316 43.6679 16.4815 43.6956 17.372C42.6429 17.3508 41.882 17.0911 41.4447 16.5954C40.9939 16.085 40.9413 15.391 40.9681 14.9375V14.9329ZM38.6645 16.5954C38.2271 17.0911 37.4711 17.3508 36.4136 17.372C36.4404 16.4843 36.694 15.8362 37.1696 15.4442C37.673 15.0247 38.365 14.9292 38.8923 14.9292C38.9813 14.9292 39.0655 14.9292 39.143 14.9357C39.167 15.391 39.1172 16.085 38.6645 16.5954ZM38.6703 23.1478C38.2329 23.6472 37.4759 23.9097 36.4136 23.9308C36.4404 23.0432 36.694 22.3951 37.1696 22.0031C37.673 21.5836 38.365 21.4881 38.8923 21.4881C38.9813 21.4881 39.0655 21.4881 39.143 21.4946C39.167 21.9471 39.1172 22.6383 38.6703 23.1478ZM26.025 20.3122L26.248 21.0264C26.2823 21.1353 26.2703 21.2529 26.2145 21.3534C26.1587 21.4538 26.0638 21.529 25.9503 21.5625L23.5645 22.2473C23.4506 22.2795 23.3281 22.267 23.2239 22.2126C23.1196 22.1582 23.0421 22.0664 23.0084 21.9572L22.7854 21.2421L26.025 20.3122ZM20.2024 17.4463L21.7251 22.3253C21.8611 22.7606 22.1714 23.1265 22.5881 23.3428C23.0048 23.5591 23.4939 23.6081 23.9482 23.4792L26.3341 22.7935C26.7879 22.6623 27.1688 22.3638 27.3933 21.9635C27.6177 21.5631 27.6674 21.0937 27.5314 20.6583L26.0059 15.7793L27.8242 15.257L32.4677 30.1336L25.1732 31.2425C24.3182 31.3721 23.4548 31.4438 22.5893 31.4573L18.3831 17.9668L20.2024 17.4463ZM33.1444 32.2935C33.1864 32.4324 33.1699 32.5816 33.0982 32.7089C33.0266 32.8361 32.9057 32.9313 32.7615 32.9737L24.4067 35.3742C24.3355 35.3947 24.2607 35.4014 24.1868 35.394C24.1129 35.3866 24.0413 35.3652 23.976 35.3311C23.8429 35.2616 23.7438 35.1445 23.7004 35.0052L22.9912 32.7323C23.7926 32.705 24.5916 32.6315 25.3838 32.512L32.8592 31.3756L33.1444 32.2935ZM54.1426 14.7796L57.5018 15.682L57.3103 16.342L56.0461 16.0033L54.2813 15.5287H54.2746L53.9512 15.4405L54.1426 14.7796ZM55.9102 17.3013L55.7188 17.953L54.3713 17.5913L54.5627 16.9396L55.9102 17.3013ZM49.9259 22.3501C50.0799 21.8268 50.4062 21.3654 50.8561 21.0346L53.5071 19.0968L53.9138 18.7994L55.5408 19.2354L55.7207 19.6944L56.8931 22.6622C57.0908 23.1615 57.1163 23.7085 56.9658 24.2228L54.8603 31.4297C54.2139 31.3923 53.5699 31.3224 52.931 31.2204L47.5917 30.3594L49.9259 22.3501ZM53.8602 34.8574C53.7842 35.1133 53.6059 35.33 53.3641 35.4605C53.1224 35.5909 52.8367 35.6246 52.5692 35.5542L47.5563 34.2148C47.4238 34.1794 47.2999 34.1193 47.1917 34.0379C47.0835 33.9566 46.9931 33.8555 46.9256 33.7406C46.8581 33.6257 46.815 33.4991 46.7985 33.3681C46.7821 33.2372 46.7928 33.1044 46.8299 32.9774L47.229 31.6115L52.7118 32.49C53.3004 32.5818 53.8957 32.6525 54.4938 32.6956L53.8602 34.8574Z" fill="#8AC942"/>
<path d="M56.2768 45.0662C56.0841 45.2513 55.976 45.5022 55.976 45.7638C55.976 46.0254 56.0841 46.2763 56.2768 46.4615C56.4206 46.5995 56.6039 46.6935 56.8035 46.7316C57.0031 46.7697 57.21 46.7502 57.398 46.6755C57.586 46.6009 57.7467 46.4744 57.8598 46.3121C57.9728 46.1498 58.0332 45.959 58.0332 45.7638C58.0332 45.5686 57.9728 45.3778 57.8598 45.2155C57.7467 45.0532 57.586 44.9268 57.398 44.8521C57.21 44.7774 57.0031 44.7579 56.8035 44.796C56.6039 44.8341 56.4206 44.9281 56.2768 45.0662ZM49.0493 51.1973C48.9538 51.1056 48.8404 51.0328 48.7156 50.9832C48.5908 50.9335 48.457 50.908 48.3219 50.908C48.1868 50.908 48.053 50.9335 47.9282 50.9832C47.8034 51.0328 47.69 51.1056 47.5946 51.1973C47.4991 51.2889 47.4234 51.3976 47.3718 51.5173C47.3201 51.637 47.2936 51.7653 47.2936 51.8948C47.2937 52.0243 47.3203 52.1526 47.372 52.2722C47.4237 52.3919 47.4995 52.5006 47.595 52.5921C47.6906 52.6837 47.8039 52.7563 47.9287 52.8058C48.0535 52.8553 48.1872 52.8808 48.3222 52.8808C48.4573 52.8807 48.591 52.8552 48.7157 52.8056C48.8405 52.756 48.9538 52.6833 49.0493 52.5917C49.2418 52.4066 49.35 52.1559 49.35 51.8945C49.35 51.633 49.2418 51.3823 49.0493 51.1973ZM31.6839 51.1973C31.5885 51.1056 31.4752 51.0329 31.3505 50.9832C31.2258 50.9336 31.0921 50.9081 30.9571 50.9081C30.822 50.9081 30.6883 50.9336 30.5636 50.9832C30.4389 51.0329 30.3256 51.1056 30.2302 51.1973C30.0865 51.3352 29.9886 51.5108 29.9489 51.7021C29.9093 51.8933 29.9297 52.0915 30.0075 52.2717C30.0853 52.4518 30.217 52.6058 30.386 52.7141C30.5551 52.8224 30.7538 52.8802 30.9571 52.8802C31.1603 52.8802 31.3591 52.8224 31.5281 52.7141C31.6971 52.6058 31.8288 52.4518 31.9067 52.2717C31.9845 52.0915 32.0048 51.8933 31.9652 51.7021C31.9255 51.5108 31.8277 51.3352 31.6839 51.1973ZM38.9124 45.0662C38.7687 45.204 38.6708 45.3797 38.6311 45.571C38.5915 45.7622 38.6119 45.9604 38.6897 46.1406C38.7675 46.3207 38.8992 46.4747 39.0682 46.583C39.2372 46.6913 39.436 46.7491 39.6392 46.7491C39.8425 46.7491 40.0412 46.6913 40.2103 46.583C40.3793 46.4747 40.511 46.3207 40.5888 46.1406C40.6666 45.9604 40.687 45.7622 40.6474 45.571C40.6077 45.3797 40.5098 45.204 40.3661 45.0662C40.2707 44.9746 40.1573 44.902 40.0326 44.8524C39.9079 44.8028 39.7742 44.7773 39.6392 44.7773C39.5042 44.7773 39.3706 44.8028 39.2459 44.8524C39.1211 44.902 39.0078 44.9746 38.9124 45.0662ZM21.547 45.0662C21.4031 45.2041 21.3051 45.38 21.2654 45.5714C21.2257 45.7628 21.246 45.9613 21.3239 46.1416C21.4017 46.322 21.5336 46.4761 21.7028 46.5845C21.872 46.693 22.0709 46.7509 22.2744 46.7509C22.4779 46.7509 22.6768 46.693 22.846 46.5845C23.0152 46.4761 23.1471 46.322 23.2249 46.1416C23.3028 45.9613 23.3231 45.7628 23.2834 45.5714C23.2437 45.38 23.1457 45.2041 23.0017 45.0662C22.8087 44.8814 22.5471 44.7776 22.2744 44.7776C22.0017 44.7776 21.7401 44.8814 21.547 45.0662ZM56.248 31.4609L58.2578 24.5679C58.4866 23.7897 58.448 22.9615 58.1478 22.206L56.8414 18.9013L57.2051 17.6483L57.5975 17.7529C57.6563 17.7689 57.7172 17.777 57.7783 17.7768C57.9245 17.7768 58.0666 17.7309 58.1831 17.6463C58.2995 17.5616 58.3839 17.4427 58.4234 17.3077L58.8062 16.0042C58.8998 15.6823 58.8564 15.338 58.6856 15.0468C58.5148 14.7556 58.2305 14.5413 57.8951 14.451L54.4861 13.533C54.32 13.4883 54.1463 13.4755 53.975 13.4952C53.8036 13.5149 53.638 13.5669 53.4877 13.648C53.3373 13.7292 53.205 13.838 53.0985 13.9682C52.992 14.0984 52.9133 14.2475 52.8669 14.4069L52.484 15.7104C52.4364 15.8745 52.4586 16.05 52.5458 16.1984C52.633 16.3468 52.7781 16.4559 52.9492 16.5017L53.2812 16.5898L52.8879 17.9393L50.0484 20.0157C49.3668 20.5156 48.8726 21.2138 48.6396 22.0059L46.2633 30.1482L40.9805 29.3019C40.8762 29.2844 40.7719 29.2707 40.6676 29.2578V24.4761C41.4246 25.0902 42.4859 25.4005 43.844 25.4005C44.0532 25.4005 44.2698 25.3932 44.4938 25.3785C44.6774 25.3664 44.8504 25.2913 44.9809 25.1669C45.1115 25.0424 45.191 24.8771 45.2049 24.701C45.3398 22.9752 44.913 21.691 43.9339 20.8823C42.862 19.9964 41.438 19.9726 40.6676 20.0414V17.9172C41.4246 18.5313 42.4859 18.8416 43.844 18.8416C44.0532 18.8416 44.2698 18.8343 44.4938 18.8196C44.6774 18.8075 44.8504 18.7324 44.9809 18.608C45.1115 18.4836 45.191 18.3182 45.2049 18.1421C45.3398 16.4163 44.913 15.1321 43.9339 14.3234C42.4228 13.074 40.212 13.5394 40.1182 13.5605C40.0962 13.5651 40.0761 13.5725 40.0541 13.5789C40.0321 13.5853 40.012 13.5651 39.99 13.5605C39.8943 13.5404 37.6864 13.0749 36.1753 14.3243C35.1934 15.1321 34.7694 16.4163 34.9062 18.1421C34.9201 18.3182 34.9996 18.4836 35.1302 18.608C35.2607 18.7324 35.4337 18.8075 35.6173 18.8196C35.8413 18.8343 36.0579 18.8416 36.2671 18.8416C37.5563 18.8416 38.5822 18.5607 39.3296 18.0054V20.0322C38.5391 19.9771 37.1993 20.0377 36.1772 20.8823C35.1981 21.691 34.7713 22.9752 34.9062 24.701C34.9201 24.8771 34.9996 25.0424 35.1302 25.1669C35.2607 25.2913 35.4337 25.3664 35.6173 25.3785C35.8413 25.3932 36.0579 25.4005 36.2671 25.4005C37.5563 25.4005 38.5822 25.1196 39.3296 24.5642V29.1835C38.8928 29.1894 38.4569 29.2246 38.0252 29.289L33.8076 29.9316L29.0904 14.8228C28.994 14.5141 28.7739 14.2547 28.4784 14.1015C28.1829 13.9484 27.8361 13.9139 27.5141 14.0058L25.5532 14.5703C25.3938 14.6162 25.2455 14.6918 25.1165 14.7928C24.9876 14.8937 24.8807 15.018 24.8019 15.1585C24.7231 15.2991 24.6739 15.4532 24.6571 15.612C24.6404 15.7708 24.6564 15.9312 24.7043 16.084L25.6403 19.083L22.4017 20.0111L21.4657 17.0121C21.3691 16.7036 21.149 16.4444 20.8536 16.2912C20.5581 16.1381 20.2114 16.1035 19.8895 16.1951L17.9285 16.7578C17.6068 16.8508 17.3367 17.0624 17.1776 17.3462C17.0184 17.6301 16.9832 17.9629 17.0796 18.2716L21.1958 31.4609H15.7924V32.7461H21.5968L22.417 35.3752C22.4887 35.6053 22.607 35.8196 22.7651 36.0058C22.9232 36.1921 23.1181 36.3466 23.3385 36.4605C23.559 36.5744 23.8007 36.6455 24.0498 36.6697C24.299 36.6939 24.5506 36.6708 24.7904 36.6016L33.1501 34.2011C33.6328 34.0599 34.0379 33.7416 34.2771 33.3154C34.5164 32.8893 34.5705 32.3897 34.4277 31.9254L34.1933 31.1727L38.2329 30.5586C38.5951 30.5033 38.961 30.4727 39.3277 30.4668V33.0059L35.9207 35.6138C35.8421 35.674 35.7787 35.7504 35.7352 35.8374C35.6916 35.9243 35.669 36.0195 35.669 36.116V38.1823L34.1665 39.528C34.1022 39.5857 34.0504 39.6549 34.014 39.7317C33.9776 39.8085 33.9573 39.8915 33.9543 39.9758C33.9513 40.0602 33.9657 40.1443 33.9966 40.2233C34.0275 40.3023 34.0743 40.3747 34.1344 40.4364C34.1945 40.498 34.2666 40.5477 34.3467 40.5827C34.4268 40.6176 34.5133 40.637 34.6013 40.6399C34.6892 40.6427 34.7768 40.6289 34.8592 40.5993C34.9416 40.5697 35.0171 40.5248 35.0814 40.4671L36.3533 39.327L37.7266 40.4809C37.8603 40.5933 38.035 40.6501 38.2123 40.6389C38.3896 40.6277 38.555 40.5494 38.6722 40.4212C38.7893 40.293 38.8486 40.1255 38.8369 39.9554C38.8252 39.7853 38.7436 39.6266 38.61 39.5143L37.0117 38.1713V36.4271L40.0005 34.1396L42.9903 36.4271V38.4632C42.9904 38.5615 43.014 38.6585 43.0593 38.7466C43.1046 38.8348 43.1704 38.9118 43.2516 38.9718L45.3321 40.5084C45.4732 40.6083 45.6494 40.6512 45.8231 40.6278C45.9967 40.6045 46.1539 40.5168 46.2608 40.3835C46.3678 40.2503 46.4161 40.0821 46.3952 39.9152C46.3744 39.7482 46.2862 39.5957 46.1495 39.4904L44.3311 38.1465V36.1178C44.3311 36.0213 44.3085 35.9261 44.2649 35.8392C44.2214 35.7523 44.1579 35.6759 44.0794 35.6157L40.6676 33.0077V30.5567C40.6982 30.5567 40.7288 30.5641 40.7633 30.5696L45.9035 31.3958L45.5436 32.6286C45.4592 32.9182 45.435 33.2208 45.4725 33.5194C45.5099 33.8179 45.6084 34.1064 45.7621 34.3685C45.9159 34.6305 46.1219 34.8609 46.3685 35.0466C46.6151 35.2322 46.8974 35.3694 47.1993 35.4504L52.2122 36.7971C52.5141 36.8785 52.8298 36.902 53.1411 36.8662C53.4525 36.8304 53.7534 36.7361 54.0267 36.5885C54.3 36.441 54.5403 36.2432 54.7337 36.0065C54.9272 35.7698 55.0701 35.4988 55.1542 35.209L55.8652 32.7461H63.1875V31.4609H56.248ZM40.9681 21.4918C41.505 21.4615 42.351 21.5092 42.9396 21.9994C43.4181 22.3951 43.6688 23.0432 43.6956 23.9272C42.6429 23.9061 41.882 23.6463 41.4447 23.1506C40.9939 22.6484 40.9413 21.9489 40.9681 21.4918ZM40.9681 14.9329C41.5031 14.9035 42.3472 14.9504 42.9348 15.436C43.4133 15.8316 43.6679 16.4815 43.6956 17.372C42.6429 17.3508 41.882 17.0911 41.4447 16.5954C40.9939 16.085 40.9413 15.391 40.9681 14.9375V14.9329ZM38.6645 16.5954C38.2271 17.0911 37.4711 17.3508 36.4136 17.372C36.4404 16.4843 36.694 15.8362 37.1696 15.4442C37.673 15.0247 38.365 14.9292 38.8923 14.9292C38.9813 14.9292 39.0655 14.9292 39.143 14.9357C39.167 15.391 39.1172 16.085 38.6645 16.5954ZM38.6703 23.1478C38.2329 23.6472 37.4759 23.9097 36.4136 23.9308C36.4404 23.0432 36.694 22.3951 37.1696 22.0031C37.673 21.5836 38.365 21.4881 38.8923 21.4881C38.9813 21.4881 39.0655 21.4881 39.143 21.4946C39.167 21.9471 39.1172 22.6383 38.6703 23.1478ZM26.025 20.3122L26.248 21.0264C26.2823 21.1353 26.2703 21.2529 26.2145 21.3534C26.1587 21.4538 26.0638 21.529 25.9503 21.5625L23.5645 22.2473C23.4506 22.2795 23.3281 22.267 23.2239 22.2126C23.1196 22.1582 23.0421 22.0664 23.0084 21.9572L22.7854 21.2421L26.025 20.3122ZM20.2024 17.4463L21.7251 22.3253C21.8611 22.7606 22.1714 23.1265 22.5881 23.3428C23.0048 23.5591 23.4939 23.6081 23.9482 23.4792L26.3341 22.7935C26.7879 22.6623 27.1688 22.3638 27.3933 21.9635C27.6177 21.5631 27.6674 21.0937 27.5314 20.6583L26.0059 15.7793L27.8242 15.257L32.4677 30.1336L25.1732 31.2425C24.3182 31.3721 23.4548 31.4438 22.5893 31.4573L18.3831 17.9668L20.2024 17.4463ZM33.1444 32.2935C33.1864 32.4324 33.1699 32.5816 33.0982 32.7089C33.0266 32.8361 32.9057 32.9313 32.7615 32.9737L24.4067 35.3742C24.3355 35.3947 24.2607 35.4014 24.1868 35.394C24.1129 35.3866 24.0413 35.3652 23.976 35.3311C23.8429 35.2616 23.7438 35.1445 23.7004 35.0052L22.9912 32.7323C23.7926 32.705 24.5916 32.6315 25.3838 32.512L32.8592 31.3756L33.1444 32.2935ZM54.1426 14.7796L57.5018 15.682L57.3103 16.342L56.0461 16.0033L54.2813 15.5287H54.2746L53.9512 15.4405L54.1426 14.7796ZM55.9102 17.3013L55.7188 17.953L54.3713 17.5913L54.5627 16.9396L55.9102 17.3013ZM49.9259 22.3501C50.0799 21.8268 50.4062 21.3654 50.8561 21.0346L53.5071 19.0968L53.9138 18.7994L55.5408 19.2354L55.7207 19.6944L56.8931 22.6622C57.0908 23.1615 57.1163 23.7085 56.9658 24.2228L54.8603 31.4297C54.2139 31.3923 53.5699 31.3224 52.931 31.2204L47.5917 30.3594L49.9259 22.3501ZM53.8602 34.8574C53.7842 35.1133 53.6059 35.33 53.3641 35.4605C53.1224 35.5909 52.8367 35.6246 52.5692 35.5542L47.5563 34.2148C47.4238 34.1794 47.2999 34.1193 47.1917 34.0379C47.0835 33.9566 46.9931 33.8555 46.9256 33.7406C46.8581 33.6257 46.815 33.4991 46.7985 33.3681C46.7821 33.2372 46.7928 33.1044 46.8299 32.9774L47.229 31.6115L52.7118 32.49C53.3004 32.5818 53.8957 32.6525 54.4938 32.6956L53.8602 34.8574Z" fill="black" fill-opacity="0.2"/>
<path d="M56.2768 45.0662C56.0841 45.2513 55.976 45.5022 55.976 45.7638C55.976 46.0254 56.0841 46.2763 56.2768 46.4615C56.4206 46.5995 56.6039 46.6935 56.8035 46.7316C57.0031 46.7697 57.21 46.7502 57.398 46.6755C57.586 46.6009 57.7467 46.4744 57.8598 46.3121C57.9728 46.1498 58.0332 45.959 58.0332 45.7638C58.0332 45.5686 57.9728 45.3778 57.8598 45.2155C57.7467 45.0532 57.586 44.9268 57.398 44.8521C57.21 44.7774 57.0031 44.7579 56.8035 44.796C56.6039 44.8341 56.4206 44.9281 56.2768 45.0662ZM49.0493 51.1973C48.9538 51.1056 48.8404 51.0328 48.7156 50.9832C48.5908 50.9335 48.457 50.908 48.3219 50.908C48.1868 50.908 48.053 50.9335 47.9282 50.9832C47.8034 51.0328 47.69 51.1056 47.5946 51.1973C47.4991 51.2889 47.4234 51.3976 47.3718 51.5173C47.3201 51.637 47.2936 51.7653 47.2936 51.8948C47.2937 52.0243 47.3203 52.1526 47.372 52.2722C47.4237 52.3919 47.4995 52.5006 47.595 52.5921C47.6906 52.6837 47.8039 52.7563 47.9287 52.8058C48.0535 52.8553 48.1872 52.8808 48.3222 52.8808C48.4573 52.8807 48.591 52.8552 48.7157 52.8056C48.8405 52.756 48.9538 52.6833 49.0493 52.5917C49.2418 52.4066 49.35 52.1559 49.35 51.8945C49.35 51.633 49.2418 51.3823 49.0493 51.1973ZM31.6839 51.1973C31.5885 51.1056 31.4752 51.0329 31.3505 50.9832C31.2258 50.9336 31.0921 50.9081 30.9571 50.9081C30.822 50.9081 30.6883 50.9336 30.5636 50.9832C30.4389 51.0329 30.3256 51.1056 30.2302 51.1973C30.0865 51.3352 29.9886 51.5108 29.9489 51.7021C29.9093 51.8933 29.9297 52.0915 30.0075 52.2717C30.0853 52.4518 30.217 52.6058 30.386 52.7141C30.5551 52.8224 30.7538 52.8802 30.9571 52.8802C31.1603 52.8802 31.3591 52.8224 31.5281 52.7141C31.6971 52.6058 31.8288 52.4518 31.9067 52.2717C31.9845 52.0915 32.0048 51.8933 31.9652 51.7021C31.9255 51.5108 31.8277 51.3352 31.6839 51.1973ZM38.9124 45.0662C38.7687 45.204 38.6708 45.3797 38.6311 45.571C38.5915 45.7622 38.6119 45.9604 38.6897 46.1406C38.7675 46.3207 38.8992 46.4747 39.0682 46.583C39.2372 46.6913 39.436 46.7491 39.6392 46.7491C39.8425 46.7491 40.0412 46.6913 40.2103 46.583C40.3793 46.4747 40.511 46.3207 40.5888 46.1406C40.6666 45.9604 40.687 45.7622 40.6474 45.571C40.6077 45.3797 40.5098 45.204 40.3661 45.0662C40.2707 44.9746 40.1573 44.902 40.0326 44.8524C39.9079 44.8028 39.7742 44.7773 39.6392 44.7773C39.5042 44.7773 39.3706 44.8028 39.2459 44.8524C39.1211 44.902 39.0078 44.9746 38.9124 45.0662ZM21.547 45.0662C21.4031 45.2041 21.3051 45.38 21.2654 45.5714C21.2257 45.7628 21.246 45.9613 21.3239 46.1416C21.4017 46.322 21.5336 46.4761 21.7028 46.5845C21.872 46.693 22.0709 46.7509 22.2744 46.7509C22.4779 46.7509 22.6768 46.693 22.846 46.5845C23.0152 46.4761 23.1471 46.322 23.2249 46.1416C23.3028 45.9613 23.3231 45.7628 23.2834 45.5714C23.2437 45.38 23.1457 45.2041 23.0017 45.0662C22.8087 44.8814 22.5471 44.7776 22.2744 44.7776C22.0017 44.7776 21.7401 44.8814 21.547 45.0662ZM56.248 31.4609L58.2578 24.5679C58.4866 23.7897 58.448 22.9615 58.1478 22.206L56.8414 18.9013L57.2051 17.6483L57.5975 17.7529C57.6563 17.7689 57.7172 17.777 57.7783 17.7768C57.9245 17.7768 58.0666 17.7309 58.1831 17.6463C58.2995 17.5616 58.3839 17.4427 58.4234 17.3077L58.8062 16.0042C58.8998 15.6823 58.8564 15.338 58.6856 15.0468C58.5148 14.7556 58.2305 14.5413 57.8951 14.451L54.4861 13.533C54.32 13.4883 54.1463 13.4755 53.975 13.4952C53.8036 13.5149 53.638 13.5669 53.4877 13.648C53.3373 13.7292 53.205 13.838 53.0985 13.9682C52.992 14.0984 52.9133 14.2475 52.8669 14.4069L52.484 15.7104C52.4364 15.8745 52.4586 16.05 52.5458 16.1984C52.633 16.3468 52.7781 16.4559 52.9492 16.5017L53.2812 16.5898L52.8879 17.9393L50.0484 20.0157C49.3668 20.5156 48.8726 21.2138 48.6396 22.0059L46.2633 30.1482L40.9805 29.3019C40.8762 29.2844 40.7719 29.2707 40.6676 29.2578V24.4761C41.4246 25.0902 42.4859 25.4005 43.844 25.4005C44.0532 25.4005 44.2698 25.3932 44.4938 25.3785C44.6774 25.3664 44.8504 25.2913 44.9809 25.1669C45.1115 25.0424 45.191 24.8771 45.2049 24.701C45.3398 22.9752 44.913 21.691 43.9339 20.8823C42.862 19.9964 41.438 19.9726 40.6676 20.0414V17.9172C41.4246 18.5313 42.4859 18.8416 43.844 18.8416C44.0532 18.8416 44.2698 18.8343 44.4938 18.8196C44.6774 18.8075 44.8504 18.7324 44.9809 18.608C45.1115 18.4836 45.191 18.3182 45.2049 18.1421C45.3398 16.4163 44.913 15.1321 43.9339 14.3234C42.4228 13.074 40.212 13.5394 40.1182 13.5605C40.0962 13.5651 40.0761 13.5725 40.0541 13.5789C40.0321 13.5853 40.012 13.5651 39.99 13.5605C39.8943 13.5404 37.6864 13.0749 36.1753 14.3243C35.1934 15.1321 34.7694 16.4163 34.9062 18.1421C34.9201 18.3182 34.9996 18.4836 35.1302 18.608C35.2607 18.7324 35.4337 18.8075 35.6173 18.8196C35.8413 18.8343 36.0579 18.8416 36.2671 18.8416C37.5563 18.8416 38.5822 18.5607 39.3296 18.0054V20.0322C38.5391 19.9771 37.1993 20.0377 36.1772 20.8823C35.1981 21.691 34.7713 22.9752 34.9062 24.701C34.9201 24.8771 34.9996 25.0424 35.1302 25.1669C35.2607 25.2913 35.4337 25.3664 35.6173 25.3785C35.8413 25.3932 36.0579 25.4005 36.2671 25.4005C37.5563 25.4005 38.5822 25.1196 39.3296 24.5642V29.1835C38.8928 29.1894 38.4569 29.2246 38.0252 29.289L33.8076 29.9316L29.0904 14.8228C28.994 14.5141 28.7739 14.2547 28.4784 14.1015C28.1829 13.9484 27.8361 13.9139 27.5141 14.0058L25.5532 14.5703C25.3938 14.6162 25.2455 14.6918 25.1165 14.7928C24.9876 14.8937 24.8807 15.018 24.8019 15.1585C24.7231 15.2991 24.6739 15.4532 24.6571 15.612C24.6404 15.7708 24.6564 15.9312 24.7043 16.084L25.6403 19.083L22.4017 20.0111L21.4657 17.0121C21.3691 16.7036 21.149 16.4444 20.8536 16.2912C20.5581 16.1381 20.2114 16.1035 19.8895 16.1951L17.9285 16.7578C17.6068 16.8508 17.3367 17.0624 17.1776 17.3462C17.0184 17.6301 16.9832 17.9629 17.0796 18.2716L21.1958 31.4609H15.7924V32.7461H21.5968L22.417 35.3752C22.4887 35.6053 22.607 35.8196 22.7651 36.0058C22.9232 36.1921 23.1181 36.3466 23.3385 36.4605C23.559 36.5744 23.8007 36.6455 24.0498 36.6697C24.299 36.6939 24.5506 36.6708 24.7904 36.6016L33.1501 34.2011C33.6328 34.0599 34.0379 33.7416 34.2771 33.3154C34.5164 32.8893 34.5705 32.3897 34.4277 31.9254L34.1933 31.1727L38.2329 30.5586C38.5951 30.5033 38.961 30.4727 39.3277 30.4668V33.0059L35.9207 35.6138C35.8421 35.674 35.7787 35.7504 35.7352 35.8374C35.6916 35.9243 35.669 36.0195 35.669 36.116V38.1823L34.1665 39.528C34.1022 39.5857 34.0504 39.6549 34.014 39.7317C33.9776 39.8085 33.9573 39.8915 33.9543 39.9758C33.9513 40.0602 33.9657 40.1443 33.9966 40.2233C34.0275 40.3023 34.0743 40.3747 34.1344 40.4364C34.1945 40.498 34.2666 40.5477 34.3467 40.5827C34.4268 40.6176 34.5133 40.637 34.6013 40.6399C34.6892 40.6427 34.7768 40.6289 34.8592 40.5993C34.9416 40.5697 35.0171 40.5248 35.0814 40.4671L36.3533 39.327L37.7266 40.4809C37.8603 40.5933 38.035 40.6501 38.2123 40.6389C38.3896 40.6277 38.555 40.5494 38.6722 40.4212C38.7893 40.293 38.8486 40.1255 38.8369 39.9554C38.8252 39.7853 38.7436 39.6266 38.61 39.5143L37.0117 38.1713V36.4271L40.0005 34.1396L42.9903 36.4271V38.4632C42.9904 38.5615 43.014 38.6585 43.0593 38.7466C43.1046 38.8348 43.1704 38.9118 43.2516 38.9718L45.3321 40.5084C45.4732 40.6083 45.6494 40.6512 45.8231 40.6278C45.9967 40.6045 46.1539 40.5168 46.2608 40.3835C46.3678 40.2503 46.4161 40.0821 46.3952 39.9152C46.3744 39.7482 46.2862 39.5957 46.1495 39.4904L44.3311 38.1465V36.1178C44.3311 36.0213 44.3085 35.9261 44.2649 35.8392C44.2214 35.7523 44.1579 35.6759 44.0794 35.6157L40.6676 33.0077V30.5567C40.6982 30.5567 40.7288 30.5641 40.7633 30.5696L45.9035 31.3958L45.5436 32.6286C45.4592 32.9182 45.435 33.2208 45.4725 33.5194C45.5099 33.8179 45.6084 34.1064 45.7621 34.3685C45.9159 34.6305 46.1219 34.8609 46.3685 35.0466C46.6151 35.2322 46.8974 35.3694 47.1993 35.4504L52.2122 36.7971C52.5141 36.8785 52.8298 36.902 53.1411 36.8662C53.4525 36.8304 53.7534 36.7361 54.0267 36.5885C54.3 36.441 54.5403 36.2432 54.7337 36.0065C54.9272 35.7698 55.0701 35.4988 55.1542 35.209L55.8652 32.7461H63.1875V31.4609H56.248ZM40.9681 21.4918C41.505 21.4615 42.351 21.5092 42.9396 21.9994C43.4181 22.3951 43.6688 23.0432 43.6956 23.9272C42.6429 23.9061 41.882 23.6463 41.4447 23.1506C40.9939 22.6484 40.9413 21.9489 40.9681 21.4918ZM40.9681 14.9329C41.5031 14.9035 42.3472 14.9504 42.9348 15.436C43.4133 15.8316 43.6679 16.4815 43.6956 17.372C42.6429 17.3508 41.882 17.0911 41.4447 16.5954C40.9939 16.085 40.9413 15.391 40.9681 14.9375V14.9329ZM38.6645 16.5954C38.2271 17.0911 37.4711 17.3508 36.4136 17.372C36.4404 16.4843 36.694 15.8362 37.1696 15.4442C37.673 15.0247 38.365 14.9292 38.8923 14.9292C38.9813 14.9292 39.0655 14.9292 39.143 14.9357C39.167 15.391 39.1172 16.085 38.6645 16.5954ZM38.6703 23.1478C38.2329 23.6472 37.4759 23.9097 36.4136 23.9308C36.4404 23.0432 36.694 22.3951 37.1696 22.0031C37.673 21.5836 38.365 21.4881 38.8923 21.4881C38.9813 21.4881 39.0655 21.4881 39.143 21.4946C39.167 21.9471 39.1172 22.6383 38.6703 23.1478ZM26.025 20.3122L26.248 21.0264C26.2823 21.1353 26.2703 21.2529 26.2145 21.3534C26.1587 21.4538 26.0638 21.529 25.9503 21.5625L23.5645 22.2473C23.4506 22.2795 23.3281 22.267 23.2239 22.2126C23.1196 22.1582 23.0421 22.0664 23.0084 21.9572L22.7854 21.2421L26.025 20.3122ZM20.2024 17.4463L21.7251 22.3253C21.8611 22.7606 22.1714 23.1265 22.5881 23.3428C23.0048 23.5591 23.4939 23.6081 23.9482 23.4792L26.3341 22.7935C26.7879 22.6623 27.1688 22.3638 27.3933 21.9635C27.6177 21.5631 27.6674 21.0937 27.5314 20.6583L26.0059 15.7793L27.8242 15.257L32.4677 30.1336L25.1732 31.2425C24.3182 31.3721 23.4548 31.4438 22.5893 31.4573L18.3831 17.9668L20.2024 17.4463ZM33.1444 32.2935C33.1864 32.4324 33.1699 32.5816 33.0982 32.7089C33.0266 32.8361 32.9057 32.9313 32.7615 32.9737L24.4067 35.3742C24.3355 35.3947 24.2607 35.4014 24.1868 35.394C24.1129 35.3866 24.0413 35.3652 23.976 35.3311C23.8429 35.2616 23.7438 35.1445 23.7004 35.0052L22.9912 32.7323C23.7926 32.705 24.5916 32.6315 25.3838 32.512L32.8592 31.3756L33.1444 32.2935ZM54.1426 14.7796L57.5018 15.682L57.3103 16.342L56.0461 16.0033L54.2813 15.5287H54.2746L53.9512 15.4405L54.1426 14.7796ZM55.9102 17.3013L55.7188 17.953L54.3713 17.5913L54.5627 16.9396L55.9102 17.3013ZM49.9259 22.3501C50.0799 21.8268 50.4062 21.3654 50.8561 21.0346L53.5071 19.0968L53.9138 18.7994L55.5408 19.2354L55.7207 19.6944L56.8931 22.6622C57.0908 23.1615 57.1163 23.7085 56.9658 24.2228L54.8603 31.4297C54.2139 31.3923 53.5699 31.3224 52.931 31.2204L47.5917 30.3594L49.9259 22.3501ZM53.8602 34.8574C53.7842 35.1133 53.6059 35.33 53.3641 35.4605C53.1224 35.5909 52.8367 35.6246 52.5692 35.5542L47.5563 34.2148C47.4238 34.1794 47.2999 34.1193 47.1917 34.0379C47.0835 33.9566 46.9931 33.8555 46.9256 33.7406C46.8581 33.6257 46.815 33.4991 46.7985 33.3681C46.7821 33.2372 46.7928 33.1044 46.8299 32.9774L47.229 31.6115L52.7118 32.49C53.3004 32.5818 53.8957 32.6525 54.4938 32.6956L53.8602 34.8574Z" fill="black" fill-opacity="0.2"/>
</svg>
