<svg width="287" height="118" viewBox="0 0 287 118" fill="none" xmlns="http://www.w3.org/2000/svg">
<g clip-path="url(#clip0_2_78)">
<path d="M95.87 79V54.325H111.83V57.265H99.37V65H111.095V67.94H99.37V76.06H111.83V79H95.87ZM124.184 79.315C122.434 79.315 120.917 78.9533 119.634 78.23C118.374 77.4833 117.394 76.445 116.694 75.115C115.994 73.7617 115.644 72.175 115.644 70.355C115.644 67.6483 116.414 65.5133 117.954 63.95C119.494 62.3867 121.57 61.605 124.184 61.605C125.257 61.605 126.319 61.7917 127.369 62.165C128.419 62.5383 129.282 63.0517 129.959 63.705L128.839 66.19C128.185 65.5833 127.462 65.14 126.669 64.86C125.899 64.5567 125.164 64.405 124.464 64.405C122.807 64.405 121.524 64.93 120.614 65.98C119.727 67.0067 119.284 68.4767 119.284 70.39C119.284 72.3033 119.727 73.8083 120.614 74.905C121.524 75.9783 122.807 76.515 124.464 76.515C125.164 76.515 125.899 76.375 126.669 76.095C127.462 75.7917 128.185 75.3367 128.839 74.73L129.959 77.25C129.282 77.88 128.407 78.3817 127.334 78.755C126.284 79.1283 125.234 79.315 124.184 79.315ZM140.775 79.315C139.048 79.315 137.555 78.9533 136.295 78.23C135.035 77.5067 134.055 76.4917 133.355 75.185C132.678 73.855 132.34 72.28 132.34 70.46C132.34 68.64 132.678 67.0767 133.355 65.77C134.055 64.44 135.035 63.4133 136.295 62.69C137.555 61.9667 139.048 61.605 140.775 61.605C142.455 61.605 143.925 61.9667 145.185 62.69C146.445 63.4133 147.425 64.44 148.125 65.77C148.825 67.0767 149.175 68.64 149.175 70.46C149.175 72.28 148.825 73.855 148.125 75.185C147.425 76.4917 146.445 77.5067 145.185 78.23C143.925 78.9533 142.455 79.315 140.775 79.315ZM140.775 76.585C142.221 76.585 143.388 76.06 144.275 75.01C145.161 73.96 145.605 72.4433 145.605 70.46C145.605 68.4767 145.161 66.9717 144.275 65.945C143.388 64.895 142.221 64.37 140.775 64.37C139.305 64.37 138.126 64.895 137.24 65.945C136.353 66.9717 135.91 68.4767 135.91 70.46C135.91 72.4433 136.353 73.96 137.24 75.01C138.126 76.06 139.305 76.585 140.775 76.585Z" fill="#19233B"/>
<path d="M165.78 79.315C163.096 79.315 160.833 78.8133 158.99 77.81C157.146 76.7833 155.746 75.325 154.79 73.435C153.856 71.545 153.39 69.2933 153.39 66.68C153.39 64.09 153.868 61.85 154.825 59.96C155.781 58.0467 157.17 56.5767 158.99 55.55C160.81 54.5233 162.991 54.01 165.535 54.01C167.285 54.01 168.906 54.2667 170.4 54.78C171.893 55.2933 173.141 56.0283 174.145 56.985L172.85 59.82C171.73 58.8867 170.586 58.2217 169.42 57.825C168.253 57.405 166.958 57.195 165.535 57.195C162.805 57.195 160.728 58.0233 159.305 59.68C157.881 61.3133 157.17 63.6467 157.17 66.68C157.17 69.7833 157.893 72.14 159.34 73.75C160.81 75.36 163.003 76.165 165.92 76.165C167.693 76.165 169.455 75.8733 171.205 75.29V68.675H165.185V65.945H174.25V77.565C173.2 78.0783 171.893 78.4983 170.33 78.825C168.79 79.1517 167.273 79.315 165.78 79.315ZM188.16 79.315C185.36 79.315 183.155 78.5333 181.545 76.97C179.935 75.3833 179.13 73.225 179.13 70.495C179.13 68.745 179.48 67.205 180.18 65.875C180.904 64.5217 181.895 63.4717 183.155 62.725C184.415 61.9783 185.862 61.605 187.495 61.605C189.852 61.605 191.707 62.3633 193.06 63.88C194.414 65.3733 195.09 67.4383 195.09 70.075V71.265H182.56C182.817 74.8117 184.695 76.585 188.195 76.585C189.175 76.585 190.132 76.4333 191.065 76.13C192.022 75.8267 192.92 75.325 193.76 74.625L194.81 77.075C194.04 77.775 193.049 78.3233 191.835 78.72C190.622 79.1167 189.397 79.315 188.16 79.315ZM187.635 64.09C186.165 64.09 184.999 64.545 184.135 65.455C183.272 66.365 182.747 67.5783 182.56 69.095H192.115C192.045 67.5083 191.625 66.2833 190.855 65.42C190.085 64.5333 189.012 64.09 187.635 64.09ZM205.629 79.315C204.229 79.315 202.923 79.14 201.709 78.79C200.496 78.4167 199.481 77.9033 198.664 77.25L199.679 74.87C200.543 75.4767 201.488 75.9433 202.514 76.27C203.564 76.5967 204.614 76.76 205.664 76.76C206.901 76.76 207.834 76.5383 208.464 76.095C209.094 75.6517 209.409 75.0567 209.409 74.31C209.409 73.7033 209.199 73.2367 208.779 72.91C208.359 72.56 207.729 72.2917 206.889 72.105L203.564 71.44C200.624 70.8333 199.154 69.3167 199.154 66.89C199.154 65.28 199.796 63.9967 201.079 63.04C202.363 62.0833 204.043 61.605 206.119 61.605C207.309 61.605 208.441 61.78 209.514 62.13C210.611 62.48 211.521 63.005 212.244 63.705L211.229 66.085C210.529 65.4783 209.724 65.0117 208.814 64.685C207.904 64.3583 207.006 64.195 206.119 64.195C204.906 64.195 203.984 64.4283 203.354 64.895C202.724 65.3383 202.409 65.945 202.409 66.715C202.409 67.8817 203.179 68.6283 204.719 68.955L208.044 69.62C209.561 69.9233 210.704 70.4367 211.474 71.16C212.268 71.8833 212.664 72.8633 212.664 74.1C212.664 75.7333 212.023 77.0167 210.739 77.95C209.456 78.86 207.753 79.315 205.629 79.315ZM224.406 79.315C222.26 79.315 220.661 78.7667 219.611 77.67C218.561 76.5733 218.036 74.9867 218.036 72.91V64.65H214.711V61.92H218.036V56.775H221.571V61.92H226.856V64.65H221.571V72.63C221.571 73.8667 221.828 74.8 222.341 75.43C222.878 76.06 223.741 76.375 224.931 76.375C225.305 76.375 225.666 76.34 226.016 76.27C226.366 76.1767 226.716 76.0717 227.066 75.955L227.626 78.615C227.276 78.825 226.786 78.9883 226.156 79.105C225.55 79.245 224.966 79.315 224.406 79.315ZM237.859 79.315C236.132 79.315 234.639 78.9533 233.379 78.23C232.119 77.5067 231.139 76.4917 230.439 75.185C229.762 73.855 229.424 72.28 229.424 70.46C229.424 68.64 229.762 67.0767 230.439 65.77C231.139 64.44 232.119 63.4133 233.379 62.69C234.639 61.9667 236.132 61.605 237.859 61.605C239.539 61.605 241.009 61.9667 242.269 62.69C243.529 63.4133 244.509 64.44 245.209 65.77C245.909 67.0767 246.259 68.64 246.259 70.46C246.259 72.28 245.909 73.855 245.209 75.185C244.509 76.4917 243.529 77.5067 242.269 78.23C241.009 78.9533 239.539 79.315 237.859 79.315ZM237.859 76.585C239.305 76.585 240.472 76.06 241.359 75.01C242.245 73.96 242.689 72.4433 242.689 70.46C242.689 68.4767 242.245 66.9717 241.359 65.945C240.472 64.895 239.305 64.37 237.859 64.37C236.389 64.37 235.21 64.895 234.324 65.945C233.437 66.9717 232.994 68.4767 232.994 70.46C232.994 72.4433 233.437 73.96 234.324 75.01C235.21 76.06 236.389 76.585 237.859 76.585ZM250.929 79V61.92H254.359V64.965C255.245 62.935 257.089 61.8033 259.889 61.57L261.044 61.5L261.289 64.51L259.154 64.72C256.05 65.0233 254.499 66.6217 254.499 69.515V79H250.929Z" fill="#8AC942"/>
<path d="M165.78 79.315C163.096 79.315 160.833 78.8133 158.99 77.81C157.146 76.7833 155.746 75.325 154.79 73.435C153.856 71.545 153.39 69.2933 153.39 66.68C153.39 64.09 153.868 61.85 154.825 59.96C155.781 58.0467 157.17 56.5767 158.99 55.55C160.81 54.5233 162.991 54.01 165.535 54.01C167.285 54.01 168.906 54.2667 170.4 54.78C171.893 55.2933 173.141 56.0283 174.145 56.985L172.85 59.82C171.73 58.8867 170.586 58.2217 169.42 57.825C168.253 57.405 166.958 57.195 165.535 57.195C162.805 57.195 160.728 58.0233 159.305 59.68C157.881 61.3133 157.17 63.6467 157.17 66.68C157.17 69.7833 157.893 72.14 159.34 73.75C160.81 75.36 163.003 76.165 165.92 76.165C167.693 76.165 169.455 75.8733 171.205 75.29V68.675H165.185V65.945H174.25V77.565C173.2 78.0783 171.893 78.4983 170.33 78.825C168.79 79.1517 167.273 79.315 165.78 79.315ZM188.16 79.315C185.36 79.315 183.155 78.5333 181.545 76.97C179.935 75.3833 179.13 73.225 179.13 70.495C179.13 68.745 179.48 67.205 180.18 65.875C180.904 64.5217 181.895 63.4717 183.155 62.725C184.415 61.9783 185.862 61.605 187.495 61.605C189.852 61.605 191.707 62.3633 193.06 63.88C194.414 65.3733 195.09 67.4383 195.09 70.075V71.265H182.56C182.817 74.8117 184.695 76.585 188.195 76.585C189.175 76.585 190.132 76.4333 191.065 76.13C192.022 75.8267 192.92 75.325 193.76 74.625L194.81 77.075C194.04 77.775 193.049 78.3233 191.835 78.72C190.622 79.1167 189.397 79.315 188.16 79.315ZM187.635 64.09C186.165 64.09 184.999 64.545 184.135 65.455C183.272 66.365 182.747 67.5783 182.56 69.095H192.115C192.045 67.5083 191.625 66.2833 190.855 65.42C190.085 64.5333 189.012 64.09 187.635 64.09ZM205.629 79.315C204.229 79.315 202.923 79.14 201.709 78.79C200.496 78.4167 199.481 77.9033 198.664 77.25L199.679 74.87C200.543 75.4767 201.488 75.9433 202.514 76.27C203.564 76.5967 204.614 76.76 205.664 76.76C206.901 76.76 207.834 76.5383 208.464 76.095C209.094 75.6517 209.409 75.0567 209.409 74.31C209.409 73.7033 209.199 73.2367 208.779 72.91C208.359 72.56 207.729 72.2917 206.889 72.105L203.564 71.44C200.624 70.8333 199.154 69.3167 199.154 66.89C199.154 65.28 199.796 63.9967 201.079 63.04C202.363 62.0833 204.043 61.605 206.119 61.605C207.309 61.605 208.441 61.78 209.514 62.13C210.611 62.48 211.521 63.005 212.244 63.705L211.229 66.085C210.529 65.4783 209.724 65.0117 208.814 64.685C207.904 64.3583 207.006 64.195 206.119 64.195C204.906 64.195 203.984 64.4283 203.354 64.895C202.724 65.3383 202.409 65.945 202.409 66.715C202.409 67.8817 203.179 68.6283 204.719 68.955L208.044 69.62C209.561 69.9233 210.704 70.4367 211.474 71.16C212.268 71.8833 212.664 72.8633 212.664 74.1C212.664 75.7333 212.023 77.0167 210.739 77.95C209.456 78.86 207.753 79.315 205.629 79.315ZM224.406 79.315C222.26 79.315 220.661 78.7667 219.611 77.67C218.561 76.5733 218.036 74.9867 218.036 72.91V64.65H214.711V61.92H218.036V56.775H221.571V61.92H226.856V64.65H221.571V72.63C221.571 73.8667 221.828 74.8 222.341 75.43C222.878 76.06 223.741 76.375 224.931 76.375C225.305 76.375 225.666 76.34 226.016 76.27C226.366 76.1767 226.716 76.0717 227.066 75.955L227.626 78.615C227.276 78.825 226.786 78.9883 226.156 79.105C225.55 79.245 224.966 79.315 224.406 79.315ZM237.859 79.315C236.132 79.315 234.639 78.9533 233.379 78.23C232.119 77.5067 231.139 76.4917 230.439 75.185C229.762 73.855 229.424 72.28 229.424 70.46C229.424 68.64 229.762 67.0767 230.439 65.77C231.139 64.44 232.119 63.4133 233.379 62.69C234.639 61.9667 236.132 61.605 237.859 61.605C239.539 61.605 241.009 61.9667 242.269 62.69C243.529 63.4133 244.509 64.44 245.209 65.77C245.909 67.0767 246.259 68.64 246.259 70.46C246.259 72.28 245.909 73.855 245.209 75.185C244.509 76.4917 243.529 77.5067 242.269 78.23C241.009 78.9533 239.539 79.315 237.859 79.315ZM237.859 76.585C239.305 76.585 240.472 76.06 241.359 75.01C242.245 73.96 242.689 72.4433 242.689 70.46C242.689 68.4767 242.245 66.9717 241.359 65.945C240.472 64.895 239.305 64.37 237.859 64.37C236.389 64.37 235.21 64.895 234.324 65.945C233.437 66.9717 232.994 68.4767 232.994 70.46C232.994 72.4433 233.437 73.96 234.324 75.01C235.21 76.06 236.389 76.585 237.859 76.585ZM250.929 79V61.92H254.359V64.965C255.245 62.935 257.089 61.8033 259.889 61.57L261.044 61.5L261.289 64.51L259.154 64.72C256.05 65.0233 254.499 66.6217 254.499 69.515V79H250.929Z" fill="black" fill-opacity="0.2"/>
<path d="M165.78 79.315C163.096 79.315 160.833 78.8133 158.99 77.81C157.146 76.7833 155.746 75.325 154.79 73.435C153.856 71.545 153.39 69.2933 153.39 66.68C153.39 64.09 153.868 61.85 154.825 59.96C155.781 58.0467 157.17 56.5767 158.99 55.55C160.81 54.5233 162.991 54.01 165.535 54.01C167.285 54.01 168.906 54.2667 170.4 54.78C171.893 55.2933 173.141 56.0283 174.145 56.985L172.85 59.82C171.73 58.8867 170.586 58.2217 169.42 57.825C168.253 57.405 166.958 57.195 165.535 57.195C162.805 57.195 160.728 58.0233 159.305 59.68C157.881 61.3133 157.17 63.6467 157.17 66.68C157.17 69.7833 157.893 72.14 159.34 73.75C160.81 75.36 163.003 76.165 165.92 76.165C167.693 76.165 169.455 75.8733 171.205 75.29V68.675H165.185V65.945H174.25V77.565C173.2 78.0783 171.893 78.4983 170.33 78.825C168.79 79.1517 167.273 79.315 165.78 79.315ZM188.16 79.315C185.36 79.315 183.155 78.5333 181.545 76.97C179.935 75.3833 179.13 73.225 179.13 70.495C179.13 68.745 179.48 67.205 180.18 65.875C180.904 64.5217 181.895 63.4717 183.155 62.725C184.415 61.9783 185.862 61.605 187.495 61.605C189.852 61.605 191.707 62.3633 193.06 63.88C194.414 65.3733 195.09 67.4383 195.09 70.075V71.265H182.56C182.817 74.8117 184.695 76.585 188.195 76.585C189.175 76.585 190.132 76.4333 191.065 76.13C192.022 75.8267 192.92 75.325 193.76 74.625L194.81 77.075C194.04 77.775 193.049 78.3233 191.835 78.72C190.622 79.1167 189.397 79.315 188.16 79.315ZM187.635 64.09C186.165 64.09 184.999 64.545 184.135 65.455C183.272 66.365 182.747 67.5783 182.56 69.095H192.115C192.045 67.5083 191.625 66.2833 190.855 65.42C190.085 64.5333 189.012 64.09 187.635 64.09ZM205.629 79.315C204.229 79.315 202.923 79.14 201.709 78.79C200.496 78.4167 199.481 77.9033 198.664 77.25L199.679 74.87C200.543 75.4767 201.488 75.9433 202.514 76.27C203.564 76.5967 204.614 76.76 205.664 76.76C206.901 76.76 207.834 76.5383 208.464 76.095C209.094 75.6517 209.409 75.0567 209.409 74.31C209.409 73.7033 209.199 73.2367 208.779 72.91C208.359 72.56 207.729 72.2917 206.889 72.105L203.564 71.44C200.624 70.8333 199.154 69.3167 199.154 66.89C199.154 65.28 199.796 63.9967 201.079 63.04C202.363 62.0833 204.043 61.605 206.119 61.605C207.309 61.605 208.441 61.78 209.514 62.13C210.611 62.48 211.521 63.005 212.244 63.705L211.229 66.085C210.529 65.4783 209.724 65.0117 208.814 64.685C207.904 64.3583 207.006 64.195 206.119 64.195C204.906 64.195 203.984 64.4283 203.354 64.895C202.724 65.3383 202.409 65.945 202.409 66.715C202.409 67.8817 203.179 68.6283 204.719 68.955L208.044 69.62C209.561 69.9233 210.704 70.4367 211.474 71.16C212.268 71.8833 212.664 72.8633 212.664 74.1C212.664 75.7333 212.023 77.0167 210.739 77.95C209.456 78.86 207.753 79.315 205.629 79.315ZM224.406 79.315C222.26 79.315 220.661 78.7667 219.611 77.67C218.561 76.5733 218.036 74.9867 218.036 72.91V64.65H214.711V61.92H218.036V56.775H221.571V61.92H226.856V64.65H221.571V72.63C221.571 73.8667 221.828 74.8 222.341 75.43C222.878 76.06 223.741 76.375 224.931 76.375C225.305 76.375 225.666 76.34 226.016 76.27C226.366 76.1767 226.716 76.0717 227.066 75.955L227.626 78.615C227.276 78.825 226.786 78.9883 226.156 79.105C225.55 79.245 224.966 79.315 224.406 79.315ZM237.859 79.315C236.132 79.315 234.639 78.9533 233.379 78.23C232.119 77.5067 231.139 76.4917 230.439 75.185C229.762 73.855 229.424 72.28 229.424 70.46C229.424 68.64 229.762 67.0767 230.439 65.77C231.139 64.44 232.119 63.4133 233.379 62.69C234.639 61.9667 236.132 61.605 237.859 61.605C239.539 61.605 241.009 61.9667 242.269 62.69C243.529 63.4133 244.509 64.44 245.209 65.77C245.909 67.0767 246.259 68.64 246.259 70.46C246.259 72.28 245.909 73.855 245.209 75.185C244.509 76.4917 243.529 77.5067 242.269 78.23C241.009 78.9533 239.539 79.315 237.859 79.315ZM237.859 76.585C239.305 76.585 240.472 76.06 241.359 75.01C242.245 73.96 242.689 72.4433 242.689 70.46C242.689 68.4767 242.245 66.9717 241.359 65.945C240.472 64.895 239.305 64.37 237.859 64.37C236.389 64.37 235.21 64.895 234.324 65.945C233.437 66.9717 232.994 68.4767 232.994 70.46C232.994 72.4433 233.437 73.96 234.324 75.01C235.21 76.06 236.389 76.585 237.859 76.585ZM250.929 79V61.92H254.359V64.965C255.245 62.935 257.089 61.8033 259.889 61.57L261.044 61.5L261.289 64.51L259.154 64.72C256.05 65.0233 254.499 66.6217 254.499 69.515V79H250.929Z" fill="black" fill-opacity="0.2"/>
<path d="M73.9668 90.1369C73.6916 90.4008 73.5371 90.7585 73.5371 91.1314C73.5371 91.5043 73.6916 91.862 73.9668 92.1259C74.1723 92.3227 74.4342 92.4567 74.7193 92.5111C75.0044 92.5654 75.2999 92.5376 75.5685 92.4311C75.8371 92.3246 76.0667 92.1443 76.2282 91.913C76.3897 91.6816 76.476 91.4096 76.476 91.1314C76.476 90.8531 76.3897 90.5811 76.2282 90.3498C76.0667 90.1185 75.8371 89.9381 75.5685 89.8317C75.2999 89.7252 75.0044 89.6974 74.7193 89.7517C74.4342 89.806 74.1723 89.9401 73.9668 90.1369ZM63.6418 98.877C63.5054 98.7462 63.3434 98.6425 63.1651 98.5718C62.9869 98.501 62.7957 98.4646 62.6027 98.4646C62.4097 98.4646 62.2186 98.501 62.0403 98.5718C61.862 98.6425 61.7 98.7462 61.5637 98.877C61.4273 99.0076 61.3191 99.1626 61.2454 99.3332C61.1716 99.5038 61.1337 99.6867 61.1337 99.8713C61.1338 100.056 61.1719 100.239 61.2457 100.409C61.3196 100.58 61.4279 100.735 61.5643 100.865C61.7008 100.996 61.8628 101.099 62.041 101.17C62.2193 101.241 62.4103 101.277 62.6032 101.277C62.7961 101.277 62.9871 101.24 63.1653 101.17C63.3435 101.099 63.5054 100.995 63.6418 100.865C63.9169 100.601 64.0714 100.244 64.0714 99.8708C64.0714 99.4981 63.9169 99.1407 63.6418 98.877ZM38.8342 98.877C38.6979 98.7463 38.5361 98.6426 38.3579 98.5718C38.1797 98.5011 37.9887 98.4647 37.7958 98.4647C37.6029 98.4647 37.4119 98.5011 37.2337 98.5718C37.0555 98.6426 36.8937 98.7463 36.7574 98.877C36.5521 99.0735 36.4123 99.3239 36.3556 99.5966C36.299 99.8692 36.3281 100.152 36.4392 100.409C36.5504 100.665 36.7386 100.885 36.98 101.039C37.2215 101.194 37.5054 101.276 37.7958 101.276C38.0862 101.276 38.3701 101.194 38.6115 101.039C38.853 100.885 39.0412 100.665 39.1523 100.409C39.2635 100.152 39.2926 99.8692 39.236 99.5966C39.1793 99.3239 39.0395 99.0735 38.8342 98.877ZM49.1605 90.1369C48.9552 90.3334 48.8154 90.5838 48.7587 90.8565C48.7021 91.1291 48.7312 91.4117 48.8424 91.6685C48.9535 91.9252 49.1417 92.1447 49.3832 92.2991C49.6246 92.4536 49.9085 92.536 50.1989 92.536C50.4893 92.536 50.7732 92.4536 51.0147 92.2991C51.2561 92.1447 51.4443 91.9252 51.5555 91.6685C51.6666 91.4117 51.6957 91.1291 51.6391 90.8565C51.5824 90.5838 51.4426 90.3334 51.2373 90.1369C51.1009 90.0063 50.9391 89.9028 50.7609 89.8321C50.5827 89.7615 50.3918 89.7251 50.1989 89.7251C50.0061 89.7251 49.8151 89.7615 49.6369 89.8321C49.4588 89.9028 49.2969 90.0063 49.1605 90.1369ZM24.3529 90.1369C24.1473 90.3336 24.0073 90.5842 23.9505 90.8571C23.8938 91.13 23.9229 91.4129 24.0341 91.67C24.1453 91.927 24.3337 92.1468 24.5754 92.3014C24.8171 92.456 25.1013 92.5385 25.392 92.5385C25.6827 92.5385 25.9669 92.456 26.2086 92.3014C26.4503 92.1468 26.6387 91.927 26.7499 91.67C26.8611 91.4129 26.8902 91.13 26.8334 90.8571C26.7767 90.5842 26.6366 90.3336 26.431 90.1369C26.1553 89.8735 25.7816 89.7256 25.392 89.7256C25.0024 89.7256 24.6287 89.8735 24.3529 90.1369ZM73.9258 70.7422L76.7969 60.916C77.1237 59.8066 77.0685 58.626 76.6396 57.5489L74.7734 52.838L75.293 51.0518L75.8535 51.201C75.9375 51.2238 76.0245 51.2352 76.1119 51.235C76.3207 51.235 76.5237 51.1696 76.6901 51.0489C76.8565 50.9282 76.977 50.7587 77.0334 50.5663L77.5803 48.7081C77.714 48.2493 77.652 47.7584 77.408 47.3433C77.164 46.9282 76.7578 46.6227 76.2787 46.4939L71.4088 45.1854C71.1714 45.1216 70.9233 45.1033 70.6785 45.1314C70.4338 45.1596 70.1972 45.2336 69.9823 45.3493C69.7675 45.465 69.5786 45.6201 69.4264 45.8057C69.2742 45.9914 69.1618 46.2039 69.0955 46.4311L68.5486 48.2893C68.4806 48.5233 68.5123 48.7735 68.6369 48.985C68.7615 49.1965 68.9687 49.352 69.2131 49.4173L69.6875 49.543L69.1256 51.4666L65.0691 54.4266C64.0955 55.1392 63.3894 56.1346 63.0566 57.2637L59.6619 68.8709L52.115 67.6644C51.966 67.6395 51.817 67.6199 51.668 67.6016V60.7851C52.7494 61.6605 54.2656 62.1029 56.2057 62.1029C56.5046 62.1029 56.814 62.0924 57.134 62.0714C57.3963 62.0542 57.6434 61.9471 57.8299 61.7698C58.0165 61.5924 58.13 61.3567 58.1498 61.1057C58.3426 58.6455 57.7328 56.8148 56.3342 55.662C54.8029 54.3992 52.7685 54.3651 51.668 54.4633V51.4352C52.7494 52.3106 54.2656 52.753 56.2057 52.753C56.5046 52.753 56.814 52.7425 57.134 52.7215C57.3963 52.7043 57.6434 52.5972 57.8299 52.4199C58.0165 52.2425 58.13 52.0068 58.1498 51.7558C58.3426 49.2956 57.7328 47.4649 56.3342 46.3121C54.1754 44.5311 51.0172 45.1945 50.8832 45.2246C50.8517 45.2312 50.823 45.2416 50.7916 45.2508C50.7601 45.2599 50.7314 45.2312 50.7 45.2246C50.5633 45.1958 47.4092 44.5324 45.2504 46.3134C43.8476 47.4649 43.242 49.2956 43.4375 51.7558C43.4572 52.0068 43.5708 52.2425 43.7574 52.4199C43.9439 52.5972 44.191 52.7043 44.4533 52.7215C44.7732 52.7425 45.0827 52.753 45.3816 52.753C47.2232 52.753 48.6889 52.3525 49.7566 51.5608V54.4502C48.6273 54.3717 46.7133 54.458 45.2531 55.662C43.8545 56.8148 43.2447 58.6455 43.4375 61.1057C43.4572 61.3567 43.5708 61.5924 43.7574 61.7698C43.9439 61.9471 44.191 62.0542 44.4533 62.0714C44.7732 62.0924 45.0827 62.1029 45.3816 62.1029C47.2232 62.1029 48.6889 61.7024 49.7566 60.9107V67.4956C49.1326 67.504 48.5099 67.5543 47.8931 67.6461L41.868 68.5621L35.1291 47.0239C34.9915 46.5839 34.677 46.2142 34.2549 45.9958C33.8327 45.7775 33.3373 45.7284 32.8773 45.8593L30.076 46.6641C29.8483 46.7295 29.6363 46.8373 29.4522 46.9812C29.268 47.125 29.1153 47.3022 29.0027 47.5026C28.8901 47.703 28.8198 47.9226 28.7959 48.149C28.772 48.3754 28.7949 48.604 28.8633 48.8219L30.2004 53.0971L25.5738 54.4201L24.2367 50.1449C24.0988 49.7051 23.7843 49.3356 23.3622 49.1173C22.9402 48.899 22.4449 48.8497 21.9849 48.9803L19.1836 49.7824C18.724 49.915 18.3382 50.2167 18.1108 50.6212C17.8834 51.0258 17.8331 51.5002 17.9709 51.9403L23.8512 70.7422H16.132V72.5742H24.424L25.5957 76.322C25.6981 76.6501 25.8671 76.9556 26.093 77.2211C26.3189 77.4866 26.5973 77.7068 26.9122 77.8692C27.2271 78.0316 27.5724 78.1329 27.9283 78.1674C28.2842 78.202 28.6438 78.1689 28.9863 78.0703L40.9287 74.6483C41.6183 74.4471 42.1969 73.9934 42.5387 73.3858C42.8806 72.7783 42.9579 72.0662 42.7539 71.4043L42.4189 70.3313L48.1898 69.4558C48.7073 69.3771 49.23 69.3334 49.7539 69.325V72.9446L44.8867 76.6623C44.7745 76.7481 44.6839 76.857 44.6217 76.9809C44.5594 77.1048 44.5271 77.2406 44.5271 77.3781V80.3237L42.3806 82.2421C42.2888 82.3243 42.2148 82.4229 42.1628 82.5324C42.1108 82.642 42.0818 82.7602 42.0776 82.8805C42.0733 83.0007 42.0938 83.1206 42.138 83.2332C42.1821 83.3458 42.249 83.4491 42.3348 83.537C42.4207 83.6249 42.5237 83.6957 42.6382 83.7455C42.7526 83.7953 42.8762 83.823 43.0018 83.8271C43.1274 83.8311 43.2526 83.8115 43.3703 83.7692C43.488 83.727 43.5958 83.6629 43.6877 83.5808L45.5047 81.9555L47.4666 83.6004C47.6575 83.7606 47.9071 83.8416 48.1604 83.8257C48.4137 83.8097 48.65 83.6981 48.8174 83.5154C48.9847 83.3326 49.0694 83.0938 49.0527 82.8513C49.036 82.6088 48.9194 82.3827 48.7285 82.2225L46.4453 80.308V77.8217L50.715 74.5607L54.9861 77.8217V80.7241C54.9863 80.8643 55.02 81.0025 55.0847 81.1282C55.1494 81.2538 55.2434 81.3636 55.3594 81.4491L58.3316 83.6397C58.5331 83.7821 58.7849 83.8432 59.033 83.8099C59.281 83.7766 59.5055 83.6516 59.6583 83.4616C59.8111 83.2717 59.8801 83.032 59.8503 82.794C59.8206 82.5559 59.6945 82.3385 59.4992 82.1885L56.9016 80.2727V77.3807C56.9016 77.2432 56.8693 77.1075 56.807 76.9835C56.7448 76.8596 56.6542 76.7507 56.542 76.6649L51.668 72.9472V69.4532C51.7117 69.4532 51.7555 69.4637 51.8047 69.4715L59.1478 70.6493L58.6338 72.4067C58.5131 72.8195 58.4785 73.251 58.5321 73.6765C58.5856 74.1021 58.7262 74.5134 58.9459 74.887C59.1655 75.2605 59.4599 75.589 59.8121 75.8536C60.1644 76.1183 60.5677 76.3139 60.999 76.4293L68.1603 78.349C68.5916 78.4651 69.0425 78.4986 69.4873 78.4476C69.9321 78.3966 70.3621 78.262 70.7525 78.0518C71.1429 77.8415 71.4861 77.5595 71.7625 77.222C72.0388 76.8846 72.2429 76.4983 72.3631 76.0852L73.3789 72.5742H83.8392V70.7422H73.9258ZM52.0973 56.5309C52.8642 56.4877 54.0728 56.5557 54.9137 57.2545C55.5973 57.8185 55.9555 58.7424 55.9937 60.0026C54.4898 59.9725 53.4029 59.6021 52.7781 58.8955C52.1342 58.1797 52.059 57.1825 52.0973 56.5309ZM52.0973 47.181C52.8615 47.1391 54.0674 47.2058 54.9068 47.8981C55.5904 48.4621 55.9541 49.3886 55.9937 50.6579C54.4898 50.6278 53.4029 50.2575 52.7781 49.5508C52.1342 48.8232 52.059 47.8339 52.0973 47.1875V47.181ZM48.8064 49.5508C48.1816 50.2575 47.1015 50.6278 45.5908 50.6579C45.6291 49.3925 45.9914 48.4686 46.6709 47.9098C47.39 47.3118 48.3785 47.1757 49.1318 47.1757C49.259 47.1757 49.3793 47.1757 49.49 47.1849C49.5242 47.8339 49.4531 48.8232 48.8064 49.5508ZM48.8146 58.8916C48.1898 59.6034 47.1084 59.9777 45.5908 60.0078C45.6291 58.7424 45.9914 57.8185 46.6709 57.2597C47.39 56.6617 48.3785 56.5256 49.1318 56.5256C49.259 56.5256 49.3793 56.5256 49.49 56.5348C49.5242 57.1799 49.4531 58.1653 48.8146 58.8916ZM30.75 54.8493L31.0685 55.8674C31.1176 56.0227 31.1004 56.1903 31.0207 56.3335C30.9411 56.4767 30.8054 56.5839 30.6433 56.6316L27.2349 57.6078C27.0723 57.6537 26.8973 57.6359 26.7484 57.5584C26.5995 57.4808 26.4888 57.3499 26.4406 57.1943L26.1221 56.1749L30.75 54.8493ZM22.432 50.7639L24.6072 57.7191C24.8015 58.3396 25.2449 58.8612 25.8402 59.1695C26.4355 59.4778 27.1341 59.5477 27.7832 59.364L31.1916 58.3864C31.8398 58.1995 32.384 57.7739 32.7046 57.2032C33.0253 56.6325 33.0963 55.9634 32.9019 55.3427L30.7226 48.3875L33.3203 47.6429L39.9539 68.85L29.5332 70.4307C28.3117 70.6155 27.0782 70.7178 25.8418 70.737L19.833 51.5059L22.432 50.7639ZM40.9205 71.9291C40.9806 72.1271 40.9569 72.3397 40.8546 72.5212C40.7523 72.7026 40.5795 72.8382 40.3736 72.8987L28.4381 76.3207C28.3364 76.3499 28.2296 76.3594 28.124 76.3489C28.0184 76.3383 27.9161 76.3078 27.8228 76.2592C27.6327 76.1602 27.4912 75.9932 27.4291 75.7947L26.416 72.5546C27.5609 72.5157 28.7023 72.4108 29.834 72.2405L40.5131 70.6205L40.9205 71.9291ZM70.918 46.9624L75.7168 48.2488L75.4433 49.1896L73.6373 48.7068L71.1162 48.0302H71.1066L70.6445 47.9046L70.918 46.9624ZM73.4431 50.5571L73.1697 51.4862L71.2447 50.9706L71.5181 50.0415L73.4431 50.5571ZM64.8941 57.7544C65.1141 57.0085 65.5803 56.3507 66.223 55.8792L70.0101 53.1167L70.5912 52.6928L72.9154 53.3143L73.1724 53.9686L74.8472 58.1993C75.1298 58.9111 75.1662 59.6909 74.9512 60.4239L71.9433 70.6977C71.0198 70.6443 70.0998 70.5447 69.1871 70.3993L61.5596 69.1719L64.8941 57.7544ZM70.5146 75.584C70.4059 75.9487 70.1512 76.2576 69.8059 76.4436C69.4605 76.6296 69.0524 76.6776 68.6703 76.5772L61.509 74.668C61.3197 74.6175 61.1428 74.5318 60.9882 74.4158C60.8336 74.2998 60.7044 74.1558 60.608 73.9919C60.5116 73.8281 60.4499 73.6477 60.4265 73.461C60.403 73.2743 60.4182 73.085 60.4713 72.904L61.0414 70.9568L68.874 72.2091C69.7148 72.34 70.5652 72.4407 71.4197 72.5022L70.5146 75.584Z" fill="#8AC942"/>
<path d="M73.9668 90.1369C73.6916 90.4008 73.5371 90.7585 73.5371 91.1314C73.5371 91.5043 73.6916 91.862 73.9668 92.1259C74.1723 92.3227 74.4342 92.4567 74.7193 92.5111C75.0044 92.5654 75.2999 92.5376 75.5685 92.4311C75.8371 92.3246 76.0667 92.1443 76.2282 91.913C76.3897 91.6816 76.476 91.4096 76.476 91.1314C76.476 90.8531 76.3897 90.5811 76.2282 90.3498C76.0667 90.1185 75.8371 89.9381 75.5685 89.8317C75.2999 89.7252 75.0044 89.6974 74.7193 89.7517C74.4342 89.806 74.1723 89.9401 73.9668 90.1369ZM63.6418 98.877C63.5054 98.7462 63.3434 98.6425 63.1651 98.5718C62.9869 98.501 62.7957 98.4646 62.6027 98.4646C62.4097 98.4646 62.2186 98.501 62.0403 98.5718C61.862 98.6425 61.7 98.7462 61.5637 98.877C61.4273 99.0076 61.3191 99.1626 61.2454 99.3332C61.1716 99.5038 61.1337 99.6867 61.1337 99.8713C61.1338 100.056 61.1719 100.239 61.2457 100.409C61.3196 100.58 61.4279 100.735 61.5643 100.865C61.7008 100.996 61.8628 101.099 62.041 101.17C62.2193 101.241 62.4103 101.277 62.6032 101.277C62.7961 101.277 62.9871 101.24 63.1653 101.17C63.3435 101.099 63.5054 100.995 63.6418 100.865C63.9169 100.601 64.0714 100.244 64.0714 99.8708C64.0714 99.4981 63.9169 99.1407 63.6418 98.877ZM38.8342 98.877C38.6979 98.7463 38.5361 98.6426 38.3579 98.5718C38.1797 98.5011 37.9887 98.4647 37.7958 98.4647C37.6029 98.4647 37.4119 98.5011 37.2337 98.5718C37.0555 98.6426 36.8937 98.7463 36.7574 98.877C36.5521 99.0735 36.4123 99.3239 36.3556 99.5966C36.299 99.8692 36.3281 100.152 36.4392 100.409C36.5504 100.665 36.7386 100.885 36.98 101.039C37.2215 101.194 37.5054 101.276 37.7958 101.276C38.0862 101.276 38.3701 101.194 38.6115 101.039C38.853 100.885 39.0412 100.665 39.1523 100.409C39.2635 100.152 39.2926 99.8692 39.236 99.5966C39.1793 99.3239 39.0395 99.0735 38.8342 98.877ZM49.1605 90.1369C48.9552 90.3334 48.8154 90.5838 48.7587 90.8565C48.7021 91.1291 48.7312 91.4117 48.8424 91.6685C48.9535 91.9252 49.1417 92.1447 49.3832 92.2991C49.6246 92.4536 49.9085 92.536 50.1989 92.536C50.4893 92.536 50.7732 92.4536 51.0147 92.2991C51.2561 92.1447 51.4443 91.9252 51.5555 91.6685C51.6666 91.4117 51.6957 91.1291 51.6391 90.8565C51.5824 90.5838 51.4426 90.3334 51.2373 90.1369C51.1009 90.0063 50.9391 89.9028 50.7609 89.8321C50.5827 89.7615 50.3918 89.7251 50.1989 89.7251C50.0061 89.7251 49.8151 89.7615 49.6369 89.8321C49.4588 89.9028 49.2969 90.0063 49.1605 90.1369ZM24.3529 90.1369C24.1473 90.3336 24.0073 90.5842 23.9505 90.8571C23.8938 91.13 23.9229 91.4129 24.0341 91.67C24.1453 91.927 24.3337 92.1468 24.5754 92.3014C24.8171 92.456 25.1013 92.5385 25.392 92.5385C25.6827 92.5385 25.9669 92.456 26.2086 92.3014C26.4503 92.1468 26.6387 91.927 26.7499 91.67C26.8611 91.4129 26.8902 91.13 26.8334 90.8571C26.7767 90.5842 26.6366 90.3336 26.431 90.1369C26.1553 89.8735 25.7816 89.7256 25.392 89.7256C25.0024 89.7256 24.6287 89.8735 24.3529 90.1369ZM73.9258 70.7422L76.7969 60.916C77.1237 59.8066 77.0685 58.626 76.6396 57.5489L74.7734 52.838L75.293 51.0518L75.8535 51.201C75.9375 51.2238 76.0245 51.2352 76.1119 51.235C76.3207 51.235 76.5237 51.1696 76.6901 51.0489C76.8565 50.9282 76.977 50.7587 77.0334 50.5663L77.5803 48.7081C77.714 48.2493 77.652 47.7584 77.408 47.3433C77.164 46.9282 76.7578 46.6227 76.2787 46.4939L71.4088 45.1854C71.1714 45.1216 70.9233 45.1033 70.6785 45.1314C70.4338 45.1596 70.1972 45.2336 69.9823 45.3493C69.7675 45.465 69.5786 45.6201 69.4264 45.8057C69.2742 45.9914 69.1618 46.2039 69.0955 46.4311L68.5486 48.2893C68.4806 48.5233 68.5123 48.7735 68.6369 48.985C68.7615 49.1965 68.9687 49.352 69.2131 49.4173L69.6875 49.543L69.1256 51.4666L65.0691 54.4266C64.0955 55.1392 63.3894 56.1346 63.0566 57.2637L59.6619 68.8709L52.115 67.6644C51.966 67.6395 51.817 67.6199 51.668 67.6016V60.7851C52.7494 61.6605 54.2656 62.1029 56.2057 62.1029C56.5046 62.1029 56.814 62.0924 57.134 62.0714C57.3963 62.0542 57.6434 61.9471 57.8299 61.7698C58.0165 61.5924 58.13 61.3567 58.1498 61.1057C58.3426 58.6455 57.7328 56.8148 56.3342 55.662C54.8029 54.3992 52.7685 54.3651 51.668 54.4633V51.4352C52.7494 52.3106 54.2656 52.753 56.2057 52.753C56.5046 52.753 56.814 52.7425 57.134 52.7215C57.3963 52.7043 57.6434 52.5972 57.8299 52.4199C58.0165 52.2425 58.13 52.0068 58.1498 51.7558C58.3426 49.2956 57.7328 47.4649 56.3342 46.3121C54.1754 44.5311 51.0172 45.1945 50.8832 45.2246C50.8517 45.2312 50.823 45.2416 50.7916 45.2508C50.7601 45.2599 50.7314 45.2312 50.7 45.2246C50.5633 45.1958 47.4092 44.5324 45.2504 46.3134C43.8476 47.4649 43.242 49.2956 43.4375 51.7558C43.4572 52.0068 43.5708 52.2425 43.7574 52.4199C43.9439 52.5972 44.191 52.7043 44.4533 52.7215C44.7732 52.7425 45.0827 52.753 45.3816 52.753C47.2232 52.753 48.6889 52.3525 49.7566 51.5608V54.4502C48.6273 54.3717 46.7133 54.458 45.2531 55.662C43.8545 56.8148 43.2447 58.6455 43.4375 61.1057C43.4572 61.3567 43.5708 61.5924 43.7574 61.7698C43.9439 61.9471 44.191 62.0542 44.4533 62.0714C44.7732 62.0924 45.0827 62.1029 45.3816 62.1029C47.2232 62.1029 48.6889 61.7024 49.7566 60.9107V67.4956C49.1326 67.504 48.5099 67.5543 47.8931 67.6461L41.868 68.5621L35.1291 47.0239C34.9915 46.5839 34.677 46.2142 34.2549 45.9958C33.8327 45.7775 33.3373 45.7284 32.8773 45.8593L30.076 46.6641C29.8483 46.7295 29.6363 46.8373 29.4522 46.9812C29.268 47.125 29.1153 47.3022 29.0027 47.5026C28.8901 47.703 28.8198 47.9226 28.7959 48.149C28.772 48.3754 28.7949 48.604 28.8633 48.8219L30.2004 53.0971L25.5738 54.4201L24.2367 50.1449C24.0988 49.7051 23.7843 49.3356 23.3622 49.1173C22.9402 48.899 22.4449 48.8497 21.9849 48.9803L19.1836 49.7824C18.724 49.915 18.3382 50.2167 18.1108 50.6212C17.8834 51.0258 17.8331 51.5002 17.9709 51.9403L23.8512 70.7422H16.132V72.5742H24.424L25.5957 76.322C25.6981 76.6501 25.8671 76.9556 26.093 77.2211C26.3189 77.4866 26.5973 77.7068 26.9122 77.8692C27.2271 78.0316 27.5724 78.1329 27.9283 78.1674C28.2842 78.202 28.6438 78.1689 28.9863 78.0703L40.9287 74.6483C41.6183 74.4471 42.1969 73.9934 42.5387 73.3858C42.8806 72.7783 42.9579 72.0662 42.7539 71.4043L42.4189 70.3313L48.1898 69.4558C48.7073 69.3771 49.23 69.3334 49.7539 69.325V72.9446L44.8867 76.6623C44.7745 76.7481 44.6839 76.857 44.6217 76.9809C44.5594 77.1048 44.5271 77.2406 44.5271 77.3781V80.3237L42.3806 82.2421C42.2888 82.3243 42.2148 82.4229 42.1628 82.5324C42.1108 82.642 42.0818 82.7602 42.0776 82.8805C42.0733 83.0007 42.0938 83.1206 42.138 83.2332C42.1821 83.3458 42.249 83.4491 42.3348 83.537C42.4207 83.6249 42.5237 83.6957 42.6382 83.7455C42.7526 83.7953 42.8762 83.823 43.0018 83.8271C43.1274 83.8311 43.2526 83.8115 43.3703 83.7692C43.488 83.727 43.5958 83.6629 43.6877 83.5808L45.5047 81.9555L47.4666 83.6004C47.6575 83.7606 47.9071 83.8416 48.1604 83.8257C48.4137 83.8097 48.65 83.6981 48.8174 83.5154C48.9847 83.3326 49.0694 83.0938 49.0527 82.8513C49.036 82.6088 48.9194 82.3827 48.7285 82.2225L46.4453 80.308V77.8217L50.715 74.5607L54.9861 77.8217V80.7241C54.9863 80.8643 55.02 81.0025 55.0847 81.1282C55.1494 81.2538 55.2434 81.3636 55.3594 81.4491L58.3316 83.6397C58.5331 83.7821 58.7849 83.8432 59.033 83.8099C59.281 83.7766 59.5055 83.6516 59.6583 83.4616C59.8111 83.2717 59.8801 83.032 59.8503 82.794C59.8206 82.5559 59.6945 82.3385 59.4992 82.1885L56.9016 80.2727V77.3807C56.9016 77.2432 56.8693 77.1075 56.807 76.9835C56.7448 76.8596 56.6542 76.7507 56.542 76.6649L51.668 72.9472V69.4532C51.7117 69.4532 51.7555 69.4637 51.8047 69.4715L59.1478 70.6493L58.6338 72.4067C58.5131 72.8195 58.4785 73.251 58.5321 73.6765C58.5856 74.1021 58.7262 74.5134 58.9459 74.887C59.1655 75.2605 59.4599 75.589 59.8121 75.8536C60.1644 76.1183 60.5677 76.3139 60.999 76.4293L68.1603 78.349C68.5916 78.4651 69.0425 78.4986 69.4873 78.4476C69.9321 78.3966 70.3621 78.262 70.7525 78.0518C71.1429 77.8415 71.4861 77.5595 71.7625 77.222C72.0388 76.8846 72.2429 76.4983 72.3631 76.0852L73.3789 72.5742H83.8392V70.7422H73.9258ZM52.0973 56.5309C52.8642 56.4877 54.0728 56.5557 54.9137 57.2545C55.5973 57.8185 55.9555 58.7424 55.9937 60.0026C54.4898 59.9725 53.4029 59.6021 52.7781 58.8955C52.1342 58.1797 52.059 57.1825 52.0973 56.5309ZM52.0973 47.181C52.8615 47.1391 54.0674 47.2058 54.9068 47.8981C55.5904 48.4621 55.9541 49.3886 55.9937 50.6579C54.4898 50.6278 53.4029 50.2575 52.7781 49.5508C52.1342 48.8232 52.059 47.8339 52.0973 47.1875V47.181ZM48.8064 49.5508C48.1816 50.2575 47.1015 50.6278 45.5908 50.6579C45.6291 49.3925 45.9914 48.4686 46.6709 47.9098C47.39 47.3118 48.3785 47.1757 49.1318 47.1757C49.259 47.1757 49.3793 47.1757 49.49 47.1849C49.5242 47.8339 49.4531 48.8232 48.8064 49.5508ZM48.8146 58.8916C48.1898 59.6034 47.1084 59.9777 45.5908 60.0078C45.6291 58.7424 45.9914 57.8185 46.6709 57.2597C47.39 56.6617 48.3785 56.5256 49.1318 56.5256C49.259 56.5256 49.3793 56.5256 49.49 56.5348C49.5242 57.1799 49.4531 58.1653 48.8146 58.8916ZM30.75 54.8493L31.0685 55.8674C31.1176 56.0227 31.1004 56.1903 31.0207 56.3335C30.9411 56.4767 30.8054 56.5839 30.6433 56.6316L27.2349 57.6078C27.0723 57.6537 26.8973 57.6359 26.7484 57.5584C26.5995 57.4808 26.4888 57.3499 26.4406 57.1943L26.1221 56.1749L30.75 54.8493ZM22.432 50.7639L24.6072 57.7191C24.8015 58.3396 25.2449 58.8612 25.8402 59.1695C26.4355 59.4778 27.1341 59.5477 27.7832 59.364L31.1916 58.3864C31.8398 58.1995 32.384 57.7739 32.7046 57.2032C33.0253 56.6325 33.0963 55.9634 32.9019 55.3427L30.7226 48.3875L33.3203 47.6429L39.9539 68.85L29.5332 70.4307C28.3117 70.6155 27.0782 70.7178 25.8418 70.737L19.833 51.5059L22.432 50.7639ZM40.9205 71.9291C40.9806 72.1271 40.9569 72.3397 40.8546 72.5212C40.7523 72.7026 40.5795 72.8382 40.3736 72.8987L28.4381 76.3207C28.3364 76.3499 28.2296 76.3594 28.124 76.3489C28.0184 76.3383 27.9161 76.3078 27.8228 76.2592C27.6327 76.1602 27.4912 75.9932 27.4291 75.7947L26.416 72.5546C27.5609 72.5157 28.7023 72.4108 29.834 72.2405L40.5131 70.6205L40.9205 71.9291ZM70.918 46.9624L75.7168 48.2488L75.4433 49.1896L73.6373 48.7068L71.1162 48.0302H71.1066L70.6445 47.9046L70.918 46.9624ZM73.4431 50.5571L73.1697 51.4862L71.2447 50.9706L71.5181 50.0415L73.4431 50.5571ZM64.8941 57.7544C65.1141 57.0085 65.5803 56.3507 66.223 55.8792L70.0101 53.1167L70.5912 52.6928L72.9154 53.3143L73.1724 53.9686L74.8472 58.1993C75.1298 58.9111 75.1662 59.6909 74.9512 60.4239L71.9433 70.6977C71.0198 70.6443 70.0998 70.5447 69.1871 70.3993L61.5596 69.1719L64.8941 57.7544ZM70.5146 75.584C70.4059 75.9487 70.1512 76.2576 69.8059 76.4436C69.4605 76.6296 69.0524 76.6776 68.6703 76.5772L61.509 74.668C61.3197 74.6175 61.1428 74.5318 60.9882 74.4158C60.8336 74.2998 60.7044 74.1558 60.608 73.9919C60.5116 73.8281 60.4499 73.6477 60.4265 73.461C60.403 73.2743 60.4182 73.085 60.4713 72.904L61.0414 70.9568L68.874 72.2091C69.7148 72.34 70.5652 72.4407 71.4197 72.5022L70.5146 75.584Z" fill="black" fill-opacity="0.2"/>
<path d="M73.9668 90.1369C73.6916 90.4008 73.5371 90.7585 73.5371 91.1314C73.5371 91.5043 73.6916 91.862 73.9668 92.1259C74.1723 92.3227 74.4342 92.4567 74.7193 92.5111C75.0044 92.5654 75.2999 92.5376 75.5685 92.4311C75.8371 92.3246 76.0667 92.1443 76.2282 91.913C76.3897 91.6816 76.476 91.4096 76.476 91.1314C76.476 90.8531 76.3897 90.5811 76.2282 90.3498C76.0667 90.1185 75.8371 89.9381 75.5685 89.8317C75.2999 89.7252 75.0044 89.6974 74.7193 89.7517C74.4342 89.806 74.1723 89.9401 73.9668 90.1369ZM63.6418 98.877C63.5054 98.7462 63.3434 98.6425 63.1651 98.5718C62.9869 98.501 62.7957 98.4646 62.6027 98.4646C62.4097 98.4646 62.2186 98.501 62.0403 98.5718C61.862 98.6425 61.7 98.7462 61.5637 98.877C61.4273 99.0076 61.3191 99.1626 61.2454 99.3332C61.1716 99.5038 61.1337 99.6867 61.1337 99.8713C61.1338 100.056 61.1719 100.239 61.2457 100.409C61.3196 100.58 61.4279 100.735 61.5643 100.865C61.7008 100.996 61.8628 101.099 62.041 101.17C62.2193 101.241 62.4103 101.277 62.6032 101.277C62.7961 101.277 62.9871 101.24 63.1653 101.17C63.3435 101.099 63.5054 100.995 63.6418 100.865C63.9169 100.601 64.0714 100.244 64.0714 99.8708C64.0714 99.4981 63.9169 99.1407 63.6418 98.877ZM38.8342 98.877C38.6979 98.7463 38.5361 98.6426 38.3579 98.5718C38.1797 98.5011 37.9887 98.4647 37.7958 98.4647C37.6029 98.4647 37.4119 98.5011 37.2337 98.5718C37.0555 98.6426 36.8937 98.7463 36.7574 98.877C36.5521 99.0735 36.4123 99.3239 36.3556 99.5966C36.299 99.8692 36.3281 100.152 36.4392 100.409C36.5504 100.665 36.7386 100.885 36.98 101.039C37.2215 101.194 37.5054 101.276 37.7958 101.276C38.0862 101.276 38.3701 101.194 38.6115 101.039C38.853 100.885 39.0412 100.665 39.1523 100.409C39.2635 100.152 39.2926 99.8692 39.236 99.5966C39.1793 99.3239 39.0395 99.0735 38.8342 98.877ZM49.1605 90.1369C48.9552 90.3334 48.8154 90.5838 48.7587 90.8565C48.7021 91.1291 48.7312 91.4117 48.8424 91.6685C48.9535 91.9252 49.1417 92.1447 49.3832 92.2991C49.6246 92.4536 49.9085 92.536 50.1989 92.536C50.4893 92.536 50.7732 92.4536 51.0147 92.2991C51.2561 92.1447 51.4443 91.9252 51.5555 91.6685C51.6666 91.4117 51.6957 91.1291 51.6391 90.8565C51.5824 90.5838 51.4426 90.3334 51.2373 90.1369C51.1009 90.0063 50.9391 89.9028 50.7609 89.8321C50.5827 89.7615 50.3918 89.7251 50.1989 89.7251C50.0061 89.7251 49.8151 89.7615 49.6369 89.8321C49.4588 89.9028 49.2969 90.0063 49.1605 90.1369ZM24.3529 90.1369C24.1473 90.3336 24.0073 90.5842 23.9505 90.8571C23.8938 91.13 23.9229 91.4129 24.0341 91.67C24.1453 91.927 24.3337 92.1468 24.5754 92.3014C24.8171 92.456 25.1013 92.5385 25.392 92.5385C25.6827 92.5385 25.9669 92.456 26.2086 92.3014C26.4503 92.1468 26.6387 91.927 26.7499 91.67C26.8611 91.4129 26.8902 91.13 26.8334 90.8571C26.7767 90.5842 26.6366 90.3336 26.431 90.1369C26.1553 89.8735 25.7816 89.7256 25.392 89.7256C25.0024 89.7256 24.6287 89.8735 24.3529 90.1369ZM73.9258 70.7422L76.7969 60.916C77.1237 59.8066 77.0685 58.626 76.6396 57.5489L74.7734 52.838L75.293 51.0518L75.8535 51.201C75.9375 51.2238 76.0245 51.2352 76.1119 51.235C76.3207 51.235 76.5237 51.1696 76.6901 51.0489C76.8565 50.9282 76.977 50.7587 77.0334 50.5663L77.5803 48.7081C77.714 48.2493 77.652 47.7584 77.408 47.3433C77.164 46.9282 76.7578 46.6227 76.2787 46.4939L71.4088 45.1854C71.1714 45.1216 70.9233 45.1033 70.6785 45.1314C70.4338 45.1596 70.1972 45.2336 69.9823 45.3493C69.7675 45.465 69.5786 45.6201 69.4264 45.8057C69.2742 45.9914 69.1618 46.2039 69.0955 46.4311L68.5486 48.2893C68.4806 48.5233 68.5123 48.7735 68.6369 48.985C68.7615 49.1965 68.9687 49.352 69.2131 49.4173L69.6875 49.543L69.1256 51.4666L65.0691 54.4266C64.0955 55.1392 63.3894 56.1346 63.0566 57.2637L59.6619 68.8709L52.115 67.6644C51.966 67.6395 51.817 67.6199 51.668 67.6016V60.7851C52.7494 61.6605 54.2656 62.1029 56.2057 62.1029C56.5046 62.1029 56.814 62.0924 57.134 62.0714C57.3963 62.0542 57.6434 61.9471 57.8299 61.7698C58.0165 61.5924 58.13 61.3567 58.1498 61.1057C58.3426 58.6455 57.7328 56.8148 56.3342 55.662C54.8029 54.3992 52.7685 54.3651 51.668 54.4633V51.4352C52.7494 52.3106 54.2656 52.753 56.2057 52.753C56.5046 52.753 56.814 52.7425 57.134 52.7215C57.3963 52.7043 57.6434 52.5972 57.8299 52.4199C58.0165 52.2425 58.13 52.0068 58.1498 51.7558C58.3426 49.2956 57.7328 47.4649 56.3342 46.3121C54.1754 44.5311 51.0172 45.1945 50.8832 45.2246C50.8517 45.2312 50.823 45.2416 50.7916 45.2508C50.7601 45.2599 50.7314 45.2312 50.7 45.2246C50.5633 45.1958 47.4092 44.5324 45.2504 46.3134C43.8476 47.4649 43.242 49.2956 43.4375 51.7558C43.4572 52.0068 43.5708 52.2425 43.7574 52.4199C43.9439 52.5972 44.191 52.7043 44.4533 52.7215C44.7732 52.7425 45.0827 52.753 45.3816 52.753C47.2232 52.753 48.6889 52.3525 49.7566 51.5608V54.4502C48.6273 54.3717 46.7133 54.458 45.2531 55.662C43.8545 56.8148 43.2447 58.6455 43.4375 61.1057C43.4572 61.3567 43.5708 61.5924 43.7574 61.7698C43.9439 61.9471 44.191 62.0542 44.4533 62.0714C44.7732 62.0924 45.0827 62.1029 45.3816 62.1029C47.2232 62.1029 48.6889 61.7024 49.7566 60.9107V67.4956C49.1326 67.504 48.5099 67.5543 47.8931 67.6461L41.868 68.5621L35.1291 47.0239C34.9915 46.5839 34.677 46.2142 34.2549 45.9958C33.8327 45.7775 33.3373 45.7284 32.8773 45.8593L30.076 46.6641C29.8483 46.7295 29.6363 46.8373 29.4522 46.9812C29.268 47.125 29.1153 47.3022 29.0027 47.5026C28.8901 47.703 28.8198 47.9226 28.7959 48.149C28.772 48.3754 28.7949 48.604 28.8633 48.8219L30.2004 53.0971L25.5738 54.4201L24.2367 50.1449C24.0988 49.7051 23.7843 49.3356 23.3622 49.1173C22.9402 48.899 22.4449 48.8497 21.9849 48.9803L19.1836 49.7824C18.724 49.915 18.3382 50.2167 18.1108 50.6212C17.8834 51.0258 17.8331 51.5002 17.9709 51.9403L23.8512 70.7422H16.132V72.5742H24.424L25.5957 76.322C25.6981 76.6501 25.8671 76.9556 26.093 77.2211C26.3189 77.4866 26.5973 77.7068 26.9122 77.8692C27.2271 78.0316 27.5724 78.1329 27.9283 78.1674C28.2842 78.202 28.6438 78.1689 28.9863 78.0703L40.9287 74.6483C41.6183 74.4471 42.1969 73.9934 42.5387 73.3858C42.8806 72.7783 42.9579 72.0662 42.7539 71.4043L42.4189 70.3313L48.1898 69.4558C48.7073 69.3771 49.23 69.3334 49.7539 69.325V72.9446L44.8867 76.6623C44.7745 76.7481 44.6839 76.857 44.6217 76.9809C44.5594 77.1048 44.5271 77.2406 44.5271 77.3781V80.3237L42.3806 82.2421C42.2888 82.3243 42.2148 82.4229 42.1628 82.5324C42.1108 82.642 42.0818 82.7602 42.0776 82.8805C42.0733 83.0007 42.0938 83.1206 42.138 83.2332C42.1821 83.3458 42.249 83.4491 42.3348 83.537C42.4207 83.6249 42.5237 83.6957 42.6382 83.7455C42.7526 83.7953 42.8762 83.823 43.0018 83.8271C43.1274 83.8311 43.2526 83.8115 43.3703 83.7692C43.488 83.727 43.5958 83.6629 43.6877 83.5808L45.5047 81.9555L47.4666 83.6004C47.6575 83.7606 47.9071 83.8416 48.1604 83.8257C48.4137 83.8097 48.65 83.6981 48.8174 83.5154C48.9847 83.3326 49.0694 83.0938 49.0527 82.8513C49.036 82.6088 48.9194 82.3827 48.7285 82.2225L46.4453 80.308V77.8217L50.715 74.5607L54.9861 77.8217V80.7241C54.9863 80.8643 55.02 81.0025 55.0847 81.1282C55.1494 81.2538 55.2434 81.3636 55.3594 81.4491L58.3316 83.6397C58.5331 83.7821 58.7849 83.8432 59.033 83.8099C59.281 83.7766 59.5055 83.6516 59.6583 83.4616C59.8111 83.2717 59.8801 83.032 59.8503 82.794C59.8206 82.5559 59.6945 82.3385 59.4992 82.1885L56.9016 80.2727V77.3807C56.9016 77.2432 56.8693 77.1075 56.807 76.9835C56.7448 76.8596 56.6542 76.7507 56.542 76.6649L51.668 72.9472V69.4532C51.7117 69.4532 51.7555 69.4637 51.8047 69.4715L59.1478 70.6493L58.6338 72.4067C58.5131 72.8195 58.4785 73.251 58.5321 73.6765C58.5856 74.1021 58.7262 74.5134 58.9459 74.887C59.1655 75.2605 59.4599 75.589 59.8121 75.8536C60.1644 76.1183 60.5677 76.3139 60.999 76.4293L68.1603 78.349C68.5916 78.4651 69.0425 78.4986 69.4873 78.4476C69.9321 78.3966 70.3621 78.262 70.7525 78.0518C71.1429 77.8415 71.4861 77.5595 71.7625 77.222C72.0388 76.8846 72.2429 76.4983 72.3631 76.0852L73.3789 72.5742H83.8392V70.7422H73.9258ZM52.0973 56.5309C52.8642 56.4877 54.0728 56.5557 54.9137 57.2545C55.5973 57.8185 55.9555 58.7424 55.9937 60.0026C54.4898 59.9725 53.4029 59.6021 52.7781 58.8955C52.1342 58.1797 52.059 57.1825 52.0973 56.5309ZM52.0973 47.181C52.8615 47.1391 54.0674 47.2058 54.9068 47.8981C55.5904 48.4621 55.9541 49.3886 55.9937 50.6579C54.4898 50.6278 53.4029 50.2575 52.7781 49.5508C52.1342 48.8232 52.059 47.8339 52.0973 47.1875V47.181ZM48.8064 49.5508C48.1816 50.2575 47.1015 50.6278 45.5908 50.6579C45.6291 49.3925 45.9914 48.4686 46.6709 47.9098C47.39 47.3118 48.3785 47.1757 49.1318 47.1757C49.259 47.1757 49.3793 47.1757 49.49 47.1849C49.5242 47.8339 49.4531 48.8232 48.8064 49.5508ZM48.8146 58.8916C48.1898 59.6034 47.1084 59.9777 45.5908 60.0078C45.6291 58.7424 45.9914 57.8185 46.6709 57.2597C47.39 56.6617 48.3785 56.5256 49.1318 56.5256C49.259 56.5256 49.3793 56.5256 49.49 56.5348C49.5242 57.1799 49.4531 58.1653 48.8146 58.8916ZM30.75 54.8493L31.0685 55.8674C31.1176 56.0227 31.1004 56.1903 31.0207 56.3335C30.9411 56.4767 30.8054 56.5839 30.6433 56.6316L27.2349 57.6078C27.0723 57.6537 26.8973 57.6359 26.7484 57.5584C26.5995 57.4808 26.4888 57.3499 26.4406 57.1943L26.1221 56.1749L30.75 54.8493ZM22.432 50.7639L24.6072 57.7191C24.8015 58.3396 25.2449 58.8612 25.8402 59.1695C26.4355 59.4778 27.1341 59.5477 27.7832 59.364L31.1916 58.3864C31.8398 58.1995 32.384 57.7739 32.7046 57.2032C33.0253 56.6325 33.0963 55.9634 32.9019 55.3427L30.7226 48.3875L33.3203 47.6429L39.9539 68.85L29.5332 70.4307C28.3117 70.6155 27.0782 70.7178 25.8418 70.737L19.833 51.5059L22.432 50.7639ZM40.9205 71.9291C40.9806 72.1271 40.9569 72.3397 40.8546 72.5212C40.7523 72.7026 40.5795 72.8382 40.3736 72.8987L28.4381 76.3207C28.3364 76.3499 28.2296 76.3594 28.124 76.3489C28.0184 76.3383 27.9161 76.3078 27.8228 76.2592C27.6327 76.1602 27.4912 75.9932 27.4291 75.7947L26.416 72.5546C27.5609 72.5157 28.7023 72.4108 29.834 72.2405L40.5131 70.6205L40.9205 71.9291ZM70.918 46.9624L75.7168 48.2488L75.4433 49.1896L73.6373 48.7068L71.1162 48.0302H71.1066L70.6445 47.9046L70.918 46.9624ZM73.4431 50.5571L73.1697 51.4862L71.2447 50.9706L71.5181 50.0415L73.4431 50.5571ZM64.8941 57.7544C65.1141 57.0085 65.5803 56.3507 66.223 55.8792L70.0101 53.1167L70.5912 52.6928L72.9154 53.3143L73.1724 53.9686L74.8472 58.1993C75.1298 58.9111 75.1662 59.6909 74.9512 60.4239L71.9433 70.6977C71.0198 70.6443 70.0998 70.5447 69.1871 70.3993L61.5596 69.1719L64.8941 57.7544ZM70.5146 75.584C70.4059 75.9487 70.1512 76.2576 69.8059 76.4436C69.4605 76.6296 69.0524 76.6776 68.6703 76.5772L61.509 74.668C61.3197 74.6175 61.1428 74.5318 60.9882 74.4158C60.8336 74.2998 60.7044 74.1558 60.608 73.9919C60.5116 73.8281 60.4499 73.6477 60.4265 73.461C60.403 73.2743 60.4182 73.085 60.4713 72.904L61.0414 70.9568L68.874 72.2091C69.7148 72.34 70.5652 72.4407 71.4197 72.5022L70.5146 75.584Z" fill="black" fill-opacity="0.2"/>
</g>
<defs>
<clipPath id="clip0_2_78">
<rect width="287" height="118" fill="white"/>
</clipPath>
</defs>
</svg>
